<svg width="80" height="80" viewBox="0 0 80 80" fill="none" xmlns="http://www.w3.org/2000/svg">
<g clip-path="url(#clip0_513_20)">
<path fill-rule="evenodd" clip-rule="evenodd" d="M33.4505 36.0612L29.8763 33.6699C32.1159 31.1525 37.0378 30.4086 41.1263 30.9001C41.1131 30.9681 41.1131 31.038 41.1263 31.106C41.327 33.6627 40.7835 36.2229 39.5638 38.4657C38.2494 40.6089 36.3128 42.2807 34.0234 43.2482C31.4193 40.5115 29.6289 37.4029 29.4661 35.118L33.4896 36.0479L33.4505 36.0612ZM41.3997 68.9407C41.0378 68.9829 40.6738 68.8822 40.3824 68.6592C40.091 68.4362 39.8943 68.1079 39.8327 67.7416C39.771 67.3753 39.8491 66.9989 40.051 66.6895C40.2528 66.3801 40.563 66.1613 40.918 66.0779C42.9775 65.7164 45.0031 65.1765 46.9727 64.4638C48.9431 63.7475 50.8491 62.8585 52.6693 61.8068C52.8334 61.7153 53.0136 61.6576 53.1997 61.637C53.3857 61.6165 53.5738 61.6336 53.7534 61.6872C53.9329 61.7409 54.1004 61.8301 54.2461 61.9498C54.3919 62.0695 54.5131 62.2173 54.6029 62.3847C54.6926 62.5522 54.7492 62.7361 54.7693 62.9259C54.7894 63.1156 54.7727 63.3076 54.7201 63.4908C54.6675 63.674 54.5801 63.8448 54.4628 63.9935C54.3455 64.1422 54.2006 64.2659 54.0365 64.3575C52.0714 65.4829 50.0152 66.434 47.8906 67.2004C45.7719 67.9649 43.5941 68.547 41.3802 68.9407H41.3997ZM13.5807 3.18166L14.974 8.36932C15.0412 8.65699 15.0294 8.95802 14.9398 9.23928C14.8502 9.52054 14.6863 9.77114 14.4661 9.96348C10.8837 13.4761 8.03177 17.6893 6.08073 22.3514C5.82682 22.9625 5.58594 23.5869 5.35807 24.2179C5.72917 23.9721 6.11979 23.6865 6.52344 23.3876L6.6276 23.3146C7.42121 22.7158 8.25194 22.17 9.11458 21.6805C17.7409 16.8516 20.4687 17.8546 24.6224 19.3823C28.2463 20.8318 32.1375 21.453 36.0221 21.2023C39.2773 21.0761 42.7409 20.8503 46.1263 20.6244C53.0143 20.1661 59.668 19.7277 65.2669 20.1727C67.8973 20.3346 70.4955 20.8482 72.9948 21.7005C73.2682 21.8001 73.5417 21.9064 73.8021 22.0193C71.838 17.463 69.0103 13.3477 65.4818 9.91034C65.2692 9.70527 65.1178 9.44298 65.0452 9.15381C64.9727 8.86464 64.9818 8.56042 65.0716 8.27633L66.3737 3.19495L13.5807 3.18166ZM4.1862 28.1502C2.84508 33.7464 2.7818 39.5822 4.00123 45.2073C5.22066 50.8325 7.69021 56.0967 11.2194 60.5939C14.7486 65.0911 19.2431 68.7012 24.3563 71.1456C29.4695 73.5901 35.0647 74.8036 40.7103 74.6926C46.3559 74.5815 51.9011 73.1489 56.9182 70.5052C61.9352 67.8616 66.29 64.0775 69.6467 59.4448C73.0034 54.8121 75.2723 49.4548 76.2784 43.7858C77.2844 38.1169 77.0007 32.288 75.4492 26.7486C74.4151 25.8367 73.2165 25.1395 71.9206 24.6962C69.6784 23.9462 67.3495 23.4996 64.9935 23.3677C59.5964 22.9359 53.0599 23.3677 46.2956 23.8127C42.9622 24.0319 39.5768 24.2578 36.1068 24.3906C31.8261 24.6684 27.5377 23.9883 23.5417 22.3979C20.1953 21.1624 17.9948 20.3587 10.5924 24.4969C9.85525 24.9214 9.14428 25.3917 8.46354 25.9051L8.36588 25.9848C6.95312 27.001 5.69661 27.8978 4.1862 28.1502ZM78.2161 25.0615C78.4896 25.7257 78.5286 26.39 78.8672 27.3531C80.5483 34.2779 80.4217 41.5313 78.5001 48.3906C76.5784 55.25 72.9288 61.476 67.9147 66.4483C62.9005 71.4207 56.697 74.9659 49.9219 76.7308C43.1469 78.4957 36.0369 78.4187 29.3001 76.5075C22.5633 74.5962 16.4349 70.9174 11.5254 65.8376C6.61587 60.7577 3.09657 54.4541 1.31808 47.5547C-0.460417 40.6553 -0.436037 33.4008 1.38879 26.5139C3.21362 19.6271 6.7752 13.3483 11.7187 8.3029L10.0521 2.09897C9.99926 1.93616 9.97287 1.76564 9.97396 1.59415C9.97396 1.17135 10.1386 0.765871 10.4316 0.466908C10.7246 0.167945 11.1221 -1.01778e-05 11.5365 -1.01778e-05H68.3594C68.4888 -0.000533103 68.6178 0.0150814 68.7435 0.0464861C69.1406 0.158517 69.4786 0.425429 69.6845 0.789574C69.8903 1.15372 69.9475 1.58587 69.8437 1.99269L68.2682 8.26304C71.8838 11.9442 74.7744 16.2982 76.7839 21.0894C77.3321 22.3902 77.8103 23.7207 78.2161 25.0748V25.0615ZM10.7292 39.5218C11.2934 39.5205 11.8454 39.69 12.3152 40.0089C12.785 40.3278 13.1515 40.7817 13.3683 41.3132C13.5851 41.8447 13.6425 42.4299 13.5332 42.9947C13.4239 43.5595 13.1529 44.0785 12.7543 44.486C12.3558 44.8936 11.8477 45.1713 11.2944 45.2841C10.7411 45.3969 10.1674 45.3397 9.64594 45.1197C9.1245 44.8997 8.67877 44.5268 8.36514 44.0482C8.05152 43.5696 7.88411 43.0069 7.88411 42.4312C7.88411 41.6607 8.18365 40.9217 8.71701 40.3763C9.25038 39.8309 9.97401 39.5236 10.7292 39.5218ZM20.0326 32.461C20.509 32.461 20.9747 32.6052 21.3708 32.8752C21.767 33.1453 22.0757 33.5291 22.258 33.9782C22.4404 34.4273 22.4881 34.9214 22.3951 35.3982C22.3022 35.8749 22.0728 36.3128 21.7359 36.6565C21.399 37.0002 20.9698 37.2343 20.5025 37.3291C20.0352 37.424 19.5509 37.3753 19.1107 37.1893C18.6706 37.0033 18.2943 36.6883 18.0297 36.2841C17.765 35.8799 17.6237 35.4048 17.6237 34.9187C17.6237 34.2669 17.8775 33.6418 18.3292 33.1809C18.781 32.72 19.3937 32.461 20.0326 32.461ZM35.8659 33.0655C36.1001 32.9603 36.3595 32.9278 36.6116 32.9722C36.8638 33.0165 37.0976 33.1357 37.2838 33.3148C37.47 33.4939 37.6003 33.725 37.6585 33.9792C37.7167 34.2334 37.7002 34.4995 37.611 34.7442C37.5219 34.989 37.364 35.2014 37.1572 35.3552C36.9503 35.5089 36.7037 35.597 36.448 35.6085C36.1924 35.62 35.9391 35.5545 35.7198 35.42C35.5004 35.2855 35.3248 35.088 35.2148 34.8523C35.14 34.6918 35.0974 34.5176 35.0897 34.34C35.082 34.1624 35.1094 33.9851 35.1701 33.8184C35.2308 33.6518 35.3236 33.4993 35.4432 33.37C35.5627 33.2407 35.7064 33.1371 35.8659 33.0655ZM42.22 31.0728C43.3147 31.2602 44.3806 31.593 45.3906 32.0625C46.9836 31.2857 48.694 30.7894 50.4492 30.5946C54.6549 29.9835 51.8034 34.1681 50.7161 35.8088C52.1745 37.4428 53.5417 39.1299 54.8698 40.9167C55.9896 42.8297 57.6888 43.3213 59.8958 42.6304L62.2721 41.6607C63.5286 41.1492 67.9167 38.9041 67.6237 41.8134C67.1484 43.753 65.4622 45.6859 63.6589 47.6255C63.6868 48.9201 63.6412 50.2153 63.5221 51.5046C63.2031 55.2974 61.6797 55.49 60.0456 52.3747L57.793 48.0572C57.0573 46.4963 56.0091 45.9317 54.8112 46.0645C51.1458 46.4299 48.3984 48.3096 43.2682 47.6853C43.2816 49.0218 43.1683 50.3564 42.9297 51.6707C42.5846 52.6736 41.8815 52.9061 40.6315 51.9828C39.2442 50.3211 38.1753 48.4081 37.4805 46.3435C36.5648 45.6642 35.6948 44.923 34.8763 44.125C37.2267 43.0531 39.2069 41.285 40.5599 39.0502C41.8874 36.6232 42.483 33.8504 42.2721 31.0794L42.22 31.0728Z" fill="black"/>
</g>
<defs>
<clipPath id="clip0_513_20">
<rect width="80" height="80" fill="white"/>
</clipPath>
</defs>
</svg>
