<svg width="350" height="99" viewBox="0 0 350 99" fill="none" xmlns="http://www.w3.org/2000/svg">
<g clip-path="url(#clip0_128_200)">
<path d="M57.6155 58.1246C59.9251 57.8926 60.8614 57.4286 60.8614 57.4286V40.8787H50.7491L36.7041 0.431824C36.7041 0.431824 35.7678 2.44256 32.7091 4.2213C31.211 5.14933 29.2759 6.00003 26.6542 6.54138C24.5318 12.4189 0 87.0484 0 87.0484L12.5468 82.4082C12.5468 82.4082 21.3483 66.0129 32.7091 61.4501C35.2684 60.4447 37.9526 59.9807 40.6991 60.4447C46.005 61.3727 49.4382 85.1923 50 84.7283C52.1223 83.0269 65.4182 80.2428 65.4182 80.2428C65.4182 80.2428 57.4282 63.5382 57.6155 58.1246ZM32.7091 45.3642L27.0287 46.8335L32.7091 33.0677L33.6454 30.8249L38.3895 43.9721L32.7091 45.3642Z" fill="black"/>
<path d="M242.01 55.4952C244.257 55.2631 245.194 54.8002 245.194 54.8002L245.443 39.2556L235.518 39.4876L222.097 0.199768C222.097 0.199768 220.286 1.43715 215.793 2.75186C214.482 3.13854 212.921 3.52522 211.049 3.91191C208.989 9.78946 184.457 84.4952 184.457 84.4952L197.004 79.7777C197.004 79.7777 205.056 64.6971 215.793 59.4382C218.728 58.0462 221.911 57.3501 225.156 57.8915C230.338 58.8195 234.769 83.1031 235.331 82.6391C237.391 80.8604 249.813 78.6176 249.813 78.6176C249.813 78.6176 241.823 60.9087 242.01 55.4952ZM215.793 45.9828L211.049 47.7615L215.418 31.7529L215.793 32.681L220.537 44.2041L215.793 45.9828Z" fill="black"/>
<path d="M103.059 0.894643C74.3446 -8.77238 50.0001 62.8409 83.6455 72.0439C83.6455 72.0439 85.7678 69.8785 89.2011 60.9075C71.0987 35.4639 94.1948 15.3565 100.999 17.3673C108.989 19.6873 113.92 63.0729 79.276 75.0601C79.276 75.0601 77.7778 83.335 79.0887 87.8205C87.0787 81.1696 94.5069 104.061 122.472 97.9516C123.034 94.1621 122.285 90.6046 123.221 83.335C115.231 87.3565 103.433 85.6551 100.812 81.6336C121.099 61.914 136.33 9.09335 103.059 0.894643Z" fill="black"/>
<path d="M131.024 7.00534L144.881 6.54132V61.682L163.92 9.55744L178.339 3.44788L178.527 82.4081H165.044C165.044 82.4081 163.546 49.3856 164.482 51.0096C164.107 67.5596 137.266 101.665 130.649 68.4876C130.087 65.7035 131.024 7.00534 131.024 7.00534Z" fill="black"/>
<path d="M263.67 6.07733H303.433L299.625 22.0859H277.903V34.073H301.498L296.567 49.6176L277.903 49.3856L278.09 66.0902L306.055 65.8582L301.498 81.6337H264.045V49.6176L257.178 49.3856L260.987 35.0011L263.67 33.609V6.07733Z" fill="#ED1C24"/>
<path d="M308.176 6.54138H323.346C323.346 6.54138 323.158 63.0741 323.346 71.5038C331.898 76.2213 334.769 78.8507 349.812 77.2267C349.812 83.3362 349.999 85.4243 349.999 91.0699C345.817 94.1633 321.473 92.2299 308.551 80.9388C308.552 76.4533 308.176 6.54138 308.176 6.54138Z" fill="#ED1C24"/>
</g>
<defs>
<clipPath id="clip0_128_200">
<rect width="350" height="99" fill="white"/>
</clipPath>
</defs>
</svg>
