<svg width="80" height="80" viewBox="0 0 80 80" fill="none" xmlns="http://www.w3.org/2000/svg">
<g clip-path="url(#clip0_514_25)">
<path fill-rule="evenodd" clip-rule="evenodd" d="M48.5872 47.1547L48.6719 30.926L52.0638 25.8976L51.9857 20.5012C51.9857 20.35 51.862 20.2251 51.7122 20.2251H41.2175V14.0202L55.5404 8.16367L41.2175 2.35971V1.1437C41.2175 -0.381234 38.9258 -0.381234 38.9258 1.1437V20.2317H29.043C28.8932 20.2317 28.7695 20.3566 28.7695 20.5078L28.6914 25.9042L32.2917 30.8274V47.1613H28.0664V42.2973H19.9479L19.974 36.7825L23.3659 31.7542L23.2878 26.3577C23.2878 26.2066 23.1641 26.0817 23.0143 26.0817H0.351563C0.201823 26.0817 0.078125 26.2066 0.078125 26.3577L0 31.7476L3.60026 36.6708V80H19.6745H19.7526H32.8516V63.4295C32.8516 59.3016 36.1979 55.9165 40.293 55.9165C44.3815 55.9165 47.7344 59.295 47.7344 63.4295V80.0066H60.2344H60.3125H76.3867L76.6146 36.7825L80.0065 31.7542L79.9284 26.3577C79.9284 26.2066 79.8047 26.0817 79.6549 26.0817H56.9792C56.8294 26.0817 56.7057 26.2066 56.7057 26.3577L56.6276 31.7542L60.2279 36.6773V42.2973H52.2201V47.1613H48.5872V47.1547ZM40.3776 25.4704C42.0638 25.4704 43.431 26.8507 43.431 28.5531C43.431 30.2555 42.0638 31.6359 40.3776 31.6359C38.6914 31.6359 37.3242 30.2555 37.3242 28.5531C37.3177 26.8573 38.6849 25.4704 40.3776 25.4704ZM68.3138 30.2884C70 30.2884 71.3672 31.6687 71.3672 33.3711C71.3672 35.0735 70 36.4539 68.3138 36.4539C66.6276 36.4539 65.2604 35.0735 65.2604 33.3711C65.2604 31.6687 66.6276 30.2884 68.3138 30.2884ZM36.8945 40.5226H43.8542C43.9518 40.5226 44.0299 40.6014 44.0299 40.7V46.9772C44.0299 47.0758 43.9518 47.1547 43.8542 47.1547H36.8945C36.7969 47.1547 36.7188 47.0758 36.7188 46.9772V40.7C36.7188 40.608 36.7969 40.5226 36.8945 40.5226ZM11.6862 30.2884C13.3724 30.2884 14.7396 31.6687 14.7396 33.3711C14.7396 35.0735 13.3724 36.4539 11.6862 36.4539C10 36.4539 8.63281 35.0735 8.63281 33.3711C8.6263 31.6687 10 30.2884 11.6862 30.2884Z" fill="black"/>
</g>
<defs>
<clipPath id="clip0_514_25">
<rect width="80" height="80" fill="white"/>
</clipPath>
</defs>
</svg>
