<svg width="120" height="120" viewBox="0 0 120 120" fill="none" xmlns="http://www.w3.org/2000/svg">
<path d="M109.238 39.2625H11.7375C10.743 39.2625 9.78916 39.6575 9.0859 40.3608C8.38264 41.0641 7.98755 42.0179 7.98755 43.0125V55.4249C7.98755 56.4195 8.38264 57.3733 9.0859 58.0766C9.78916 58.7799 10.743 59.1749 11.7375 59.1749H12.4875V108.75C12.4875 109.745 12.8826 110.698 13.5859 111.402C14.2892 112.105 15.243 112.5 16.2375 112.5H26.25C27.2446 112.5 28.1984 112.105 28.9017 111.402C29.605 110.698 30 109.745 30 108.75V59.1749H56.25V108.75C56.25 109.745 56.6451 110.698 57.3484 111.402C58.0517 112.105 59.0055 112.5 60 112.5H109.238C110.232 112.5 111.186 112.105 111.889 111.402C112.592 110.698 112.988 109.745 112.988 108.75V43.0125C112.988 42.0179 112.592 41.0641 111.889 40.3608C111.186 39.6575 110.232 39.2625 109.238 39.2625ZM15.4875 46.7625H105.488V51.6749H15.4875V46.7625ZM22.5 105H19.9875V59.1749H22.5V105ZM105.488 59.1749V78.3374H63.75V59.1749H105.488ZM105.488 105H63.75V85.8374H105.488V105Z" fill="#1D484E"/>
<path d="M71.4751 72.4875H98.6626C99.6572 72.4875 100.611 72.0925 101.314 71.3892C102.018 70.6859 102.413 69.7321 102.413 68.7375C102.413 67.743 102.018 66.7892 101.314 66.0859C100.611 65.3826 99.6572 64.9875 98.6626 64.9875H71.4751C70.4805 64.9875 69.5267 65.3826 68.8235 66.0859C68.1202 66.7892 67.7251 67.743 67.7251 68.7375C67.7251 69.7321 68.1202 70.6859 68.8235 71.3892C69.5267 72.0925 70.4805 72.4875 71.4751 72.4875Z" fill="#1D484E"/>
<path d="M71.025 97.5H98.2125C99.2071 97.5 100.161 97.1049 100.864 96.4017C101.567 95.6984 101.963 94.7446 101.963 93.75C101.963 92.7554 101.567 91.8016 100.864 91.0983C100.161 90.3951 99.2071 90 98.2125 90H71.025C70.0305 90 69.0766 90.3951 68.3734 91.0983C67.6701 91.8016 67.275 92.7554 67.275 93.75C67.275 94.7446 67.6701 95.6984 68.3734 96.4017C69.0766 97.1049 70.0305 97.5 71.025 97.5Z" fill="#1D484E"/>
</svg>
