<svg width="125" height="125" viewBox="0 0 125 125" fill="none" xmlns="http://www.w3.org/2000/svg">
<path d="M17.8711 46.8749H22.0118C23.7396 46.8829 25.4402 46.4449 26.9491 45.6032C28.458 44.7615 29.7242 43.5446 30.625 42.0702C36.8927 45.5199 43.9609 47.2516 51.1133 47.0897C55.2858 47.0897 59.2874 45.4322 62.2378 42.4818C65.1882 39.5314 66.8457 35.5298 66.8457 31.3573C66.8457 27.1848 65.1882 23.1832 62.2378 20.2328C59.2874 17.2824 55.2858 15.6249 51.1133 15.6249C43.9609 15.463 36.8927 17.1947 30.625 20.6444C29.7251 19.1677 28.4597 17.948 26.951 17.1029C25.4422 16.2579 23.741 15.8161 22.0118 15.8202H17.8711C16.2376 15.8254 14.6728 16.4779 13.5196 17.6348C12.3663 18.7917 11.7188 20.3586 11.7188 21.9921V23.0858C11.7331 24.6799 12.1204 26.2486 12.8495 27.6662C13.5787 29.0838 14.6295 30.3111 15.918 31.2499C14.6082 32.2042 13.5443 33.4565 12.8142 34.9032C12.084 36.35 11.7085 37.9497 11.7188 39.5702V40.664C11.711 41.4768 11.8645 42.2831 12.1702 43.0364C12.4759 43.7896 12.9278 44.4747 13.4999 45.0522C14.072 45.6298 14.7528 46.0882 15.5031 46.401C16.2534 46.7139 17.0582 46.8749 17.8711 46.8749ZM43.75 33.203C43.8471 33.9584 43.984 34.7082 44.1602 35.4491H42.0118C41.2473 35.4479 40.4978 35.2381 39.8438 34.8423C39.1899 34.4465 38.6564 33.8797 38.3008 33.203H43.75ZM15.625 39.5702C15.6147 38.7378 15.7697 37.9116 16.0812 37.1395C16.3926 36.3674 16.8542 35.6649 17.4392 35.0726C18.0242 34.4803 18.721 34.01 19.4892 33.6891C20.2574 33.3682 21.0816 33.203 21.9141 33.203C22.4321 33.203 22.9289 32.9972 23.2952 32.631C23.6614 32.2647 23.8672 31.7679 23.8672 31.2499C23.8672 30.7319 23.6614 30.2351 23.2952 29.8688C22.9289 29.5025 22.4321 29.2968 21.9141 29.2968C20.2611 29.2918 18.6761 28.6384 17.5 27.4768C16.3239 26.3153 15.6506 24.7386 15.625 23.0858V21.9921C15.625 21.3946 15.861 20.8212 16.2817 20.3969C16.7024 19.9726 17.2736 19.7316 17.8711 19.7265H22.0118C23.319 19.7352 24.59 20.1575 25.6426 20.9329C26.6951 21.7083 27.4753 22.7969 27.8711 24.0429C27.9626 24.3306 28.1196 24.5933 28.3297 24.8102C28.5398 25.0271 28.7973 25.1923 29.0821 25.2929C29.3658 25.3916 29.6685 25.4237 29.9666 25.3864C30.2647 25.3491 30.5502 25.2436 30.8008 25.078C36.8684 21.248 43.9412 19.3166 51.1133 19.5311C54.2213 19.5311 57.202 20.7658 59.3997 22.9635C61.5974 25.1612 62.8321 28.1419 62.8321 31.2499C62.8578 32.3016 62.7462 33.3521 62.5 34.3749H58.3789C57.8609 34.3749 57.3642 34.5807 56.9979 34.9469C56.6316 35.3132 56.4258 35.81 56.4258 36.328C56.4258 36.846 56.6316 37.3428 56.9979 37.7091C57.3642 38.0754 57.8609 38.2811 58.3789 38.2811H60.5469C58.8836 40.5695 56.4486 42.179 53.6914 42.8124C51.7902 41.5437 50.2332 39.8235 49.1595 37.8057C48.0859 35.788 47.5291 33.5355 47.5391 31.2499C47.5391 30.7319 47.3333 30.2351 46.967 29.8688C46.6008 29.5025 46.104 29.2968 45.586 29.2968H35.8203C35.3023 29.2968 34.8056 29.5025 34.4393 29.8688C34.073 30.2351 33.8672 30.7319 33.8672 31.2499C33.8672 33.3996 34.7212 35.4613 36.2413 36.9813C37.7613 38.5014 39.823 39.3554 41.9727 39.3554H45.6055C46.2601 40.6554 47.0736 41.8691 48.0274 42.9686C41.9338 42.725 36.0121 40.8791 30.8594 37.6171C30.5473 37.3918 30.17 37.2751 29.7852 37.285C29.567 37.2889 29.3502 37.3217 29.1407 37.3827C28.8538 37.4852 28.5949 37.6534 28.3846 37.8738C28.1744 38.0943 28.0186 38.3609 27.9297 38.6522C27.5331 39.8961 26.7522 40.9822 25.6994 41.7543C24.6465 42.5264 23.3759 42.9447 22.0703 42.9491H17.8711C17.5729 42.9492 17.2776 42.8898 17.0025 42.7745C16.7274 42.6592 16.478 42.4902 16.2689 42.2775C16.0598 42.0648 15.8952 41.8125 15.7847 41.5355C15.6741 41.2585 15.6198 40.9622 15.625 40.664V39.5702Z" fill="#1D484E"/>
<path d="M55.6836 30.0781C57.0319 30.0781 58.125 28.9851 58.125 27.6367C58.125 26.2884 57.0319 25.1953 55.6836 25.1953C54.3352 25.1953 53.2422 26.2884 53.2422 27.6367C53.2422 28.9851 54.3352 30.0781 55.6836 30.0781Z" fill="#1D484E"/>
<path d="M109.375 64.4529C109.349 60.3168 107.695 56.3574 104.77 53.4327C101.846 50.5079 97.8861 48.8535 93.75 48.8279C86.6034 48.663 79.5408 50.395 73.2813 53.8474C72.3744 52.3741 71.1043 51.1585 69.5926 50.3172C68.0809 49.4758 66.3784 49.037 64.6484 49.0428H60.4297C58.7996 49.0479 57.2377 49.6977 56.085 50.8504C54.9323 52.0031 54.2825 53.565 54.2773 55.1951V56.2888C54.2917 57.883 54.6789 59.4516 55.4081 60.8692C56.1373 62.2869 57.1881 63.5141 58.4766 64.4529C57.1775 65.3995 56.1202 66.6393 55.3905 68.0714C54.6608 69.5036 54.2795 71.0878 54.2773 72.6951V73.7888C54.2773 75.4223 54.9249 76.9892 56.0781 78.1461C57.2314 79.303 58.7962 79.9555 60.4297 79.9607H64.5703C66.3018 79.9625 68.0048 79.5199 69.5163 78.6753C71.0278 77.8306 72.2973 76.6121 73.2031 75.1365C79.4932 78.5753 86.5842 80.2806 93.75 80.0779C97.8798 80.0322 101.828 78.3713 104.748 75.4509C107.668 72.5305 109.329 68.5827 109.375 64.4529ZM86.3086 66.406C86.4057 67.1614 86.5426 67.9112 86.7188 68.6521H84.5703C83.8059 68.651 83.0563 68.4412 82.4024 68.0453C81.7484 67.6495 81.2149 67.0827 80.8594 66.406H86.3086ZM72.2656 70.3123C72.0517 70.284 71.835 70.284 71.6211 70.3123C71.3342 70.4148 71.0753 70.583 70.8651 70.8034C70.6548 71.0239 70.499 71.2904 70.4102 71.5818C70.0143 72.8278 69.2342 73.9164 68.1816 74.6918C67.1291 75.4672 65.8581 75.8895 64.5508 75.8982H60.4297C59.8322 75.8931 59.2609 75.6521 58.8403 75.2278C58.4196 74.8034 58.1836 74.2301 58.1836 73.6326V72.5388C58.2292 70.9031 58.9085 69.349 60.0783 68.2048C61.2481 67.0605 62.8168 66.4155 64.4531 66.406C64.9711 66.406 65.4679 66.2003 65.8342 65.834C66.2005 65.4677 66.4062 64.9709 66.4062 64.4529C66.4062 63.9349 66.2005 63.4381 65.8342 63.0718C65.4679 62.7056 64.9711 62.4998 64.4531 62.4998C62.7867 62.4946 61.1901 61.8304 60.0118 60.6521C58.8335 59.4738 58.1692 57.8771 58.1641 56.2107V55.117C58.1641 54.5213 58.4007 53.95 58.8219 53.5287C59.2432 53.1075 59.8145 52.8709 60.4102 52.8709H64.5508C65.8564 52.8753 67.1269 53.2936 68.1798 54.0657C69.2326 54.8378 70.0135 55.9239 70.4102 57.1678C70.499 57.4591 70.6548 57.7257 70.8651 57.9461C71.0753 58.1666 71.3342 58.3348 71.6211 58.4373C71.9063 58.5333 72.2098 58.562 72.5079 58.5214C72.8061 58.4807 73.0908 58.3717 73.3398 58.2029C79.4439 54.3815 86.553 52.4766 93.75 52.7342C96.858 52.7342 99.8387 53.9688 102.036 56.1665C104.234 58.3642 105.469 61.3449 105.469 64.4529C105.459 65.4843 105.308 66.5095 105.02 67.4998H100.938C100.42 67.4998 99.9227 67.7056 99.5564 68.0718C99.1902 68.4381 98.9844 68.9349 98.9844 69.4529C98.9844 69.9709 99.1902 70.4677 99.5564 70.834C99.9227 71.2003 100.42 71.406 100.938 71.406H103.164C101.489 73.6906 99.0492 75.2984 96.2891 75.9373C94.3917 74.6804 92.8338 72.9746 91.7538 70.9712C90.6737 68.9678 90.1049 66.7289 90.0977 64.4529C90.0977 63.9349 89.8919 63.4381 89.5256 63.0718C89.1593 62.7056 88.6625 62.4998 88.1445 62.4998H78.3789C77.8609 62.4998 77.3641 62.7056 76.9978 63.0718C76.6316 63.4381 76.4258 63.9349 76.4258 64.4529C76.4258 66.6026 77.2798 68.6643 78.7998 70.1843C80.3199 71.7044 82.3815 72.5584 84.5312 72.5584H88.1641C88.8147 73.8154 89.6147 74.9893 90.5469 76.0545C84.4722 75.807 78.5705 73.961 73.4375 70.7029C73.0994 70.4493 72.6882 70.3123 72.2656 70.3123Z" fill="#1D484E"/>
<path d="M98.2422 63.2031C99.5905 63.2031 100.684 62.1101 100.684 60.7617C100.684 59.4134 99.5905 58.3203 98.2422 58.3203C96.8938 58.3203 95.8008 59.4134 95.8008 60.7617C95.8008 62.1101 96.8938 63.2031 98.2422 63.2031Z" fill="#1D484E"/>
<path d="M17.8711 113.086H22.0118C23.741 113.09 25.4422 112.648 26.951 111.803C28.4597 110.958 29.7251 109.738 30.625 108.262C36.8927 111.711 43.9608 113.443 51.1133 113.281C55.278 113.281 59.2722 111.627 62.2171 108.682C65.162 105.737 66.8164 101.743 66.8164 97.578C66.8164 93.4133 65.162 89.4191 62.2171 86.4742C59.2722 83.5293 55.278 81.8749 51.1133 81.8749C43.9608 81.713 36.8927 83.4447 30.625 86.8944C29.7314 85.4092 28.4683 84.1806 26.9589 83.3284C25.4495 82.4761 23.7451 82.0292 22.0118 82.0311H17.8711C17.0582 82.0311 16.2534 82.1922 15.5031 82.505C14.7528 82.8178 14.072 83.2763 13.4999 83.8538C12.9278 84.4313 12.4759 85.1165 12.1702 85.8697C11.8645 86.6229 11.711 87.4292 11.7188 88.2421V89.3358C11.7085 90.9564 12.084 92.5561 12.8142 94.0028C13.5443 95.4496 14.6082 96.7018 15.918 97.6561C14.6295 98.5949 13.5787 99.8222 12.8495 101.24C12.1204 102.657 11.7331 104.226 11.7188 105.82V106.914C11.7188 108.547 12.3663 110.114 13.5196 111.271C14.6728 112.428 16.2376 113.081 17.8711 113.086ZM43.75 99.6093C43.8471 100.365 43.984 101.114 44.1602 101.855H42.0118C41.2473 101.854 40.4978 101.644 39.8438 101.249C39.1899 100.853 38.6564 100.286 38.3008 99.6093H43.75ZM15.625 105.82C15.6506 104.167 16.3239 102.591 17.5 101.429C18.6761 100.268 20.2611 99.6142 21.9141 99.6093C22.4321 99.6093 22.9289 99.4035 23.2952 99.0372C23.6614 98.6709 23.8672 98.1741 23.8672 97.6561C23.8672 97.1381 23.6614 96.6414 23.2952 96.2751C22.9289 95.9088 22.4321 95.703 21.9141 95.703C21.0816 95.7031 20.2574 95.5379 19.4892 95.2169C18.721 94.896 18.0242 94.4258 17.4392 93.8335C16.8542 93.2412 16.3926 92.5386 16.0812 91.7666C15.7697 90.9945 15.6147 90.1683 15.625 89.3358V88.2421C15.6172 87.9422 15.6695 87.6438 15.7789 87.3645C15.8883 87.0852 16.0525 86.8307 16.2618 86.6158C16.4712 86.401 16.7214 86.2303 16.9978 86.1138C17.2742 85.9973 17.5712 85.9373 17.8711 85.9374H22.0118C23.3174 85.9418 24.5879 86.3601 25.6408 87.1322C26.6936 87.9043 27.4745 88.9904 27.8711 90.2343C27.96 90.5257 28.1158 90.7922 28.326 91.0127C28.5363 91.2331 28.7952 91.4013 29.0821 91.5038C29.3658 91.6026 29.6685 91.6346 29.9666 91.5973C30.2647 91.5601 30.5501 91.4545 30.8008 91.289C36.8461 87.4557 43.8994 85.5172 51.0547 85.7226C54.1627 85.7226 57.1434 86.9572 59.3411 89.1549C61.5388 91.3526 62.7735 94.3333 62.7735 97.4413C62.8236 98.5099 62.7316 99.5805 62.5 100.625H58.3789C57.8609 100.625 57.3642 100.831 56.9979 101.197C56.6316 101.563 56.4258 102.06 56.4258 102.578C56.4258 103.096 56.6316 103.593 56.9979 103.959C57.3642 104.325 57.8609 104.531 58.3789 104.531H60.5469C58.8714 106.816 56.432 108.423 53.6719 109.062C51.7963 107.806 50.2567 106.11 49.1877 104.122C48.1187 102.133 47.5526 99.9136 47.5391 97.6561C47.5391 97.1381 47.3333 96.6414 46.967 96.2751C46.6008 95.9088 46.104 95.703 45.586 95.703H35.8203C35.3023 95.703 34.8056 95.9088 34.4393 96.2751C34.073 96.6414 33.8672 97.1381 33.8672 97.6561C33.8672 99.8059 34.7212 101.868 36.2413 103.388C37.7613 104.908 39.823 105.762 41.9727 105.762H45.6055C46.2561 107.019 47.0562 108.193 47.9883 109.258C41.8947 109.014 35.9731 107.168 30.8203 103.906C30.5688 103.741 30.2826 103.637 29.9841 103.601C29.6855 103.565 29.3827 103.598 29.0992 103.698C28.8156 103.798 28.559 103.963 28.3494 104.178C28.1398 104.394 27.9828 104.655 27.8907 104.941C27.4948 106.187 26.7147 107.276 25.6621 108.051C24.6096 108.827 23.3386 109.249 22.0313 109.258H17.8711C17.5686 109.255 17.2695 109.192 16.9917 109.072C16.7139 108.953 16.4629 108.778 16.2536 108.56C16.0442 108.341 15.8807 108.083 15.7728 107.8C15.6648 107.518 15.6146 107.216 15.625 106.914V105.82Z" fill="#1D484E"/>
<path d="M55.6836 96.3281C57.0319 96.3281 58.125 95.2351 58.125 93.8867C58.125 92.5384 57.0319 91.4453 55.6836 91.4453C54.3352 91.4453 53.2422 92.5384 53.2422 93.8867C53.2422 95.2351 54.3352 96.3281 55.6836 96.3281Z" fill="#1D484E"/>
<path d="M98.0664 45.8984C99.4047 45.9023 100.714 45.5087 101.828 44.7677C102.943 44.0266 103.812 42.9714 104.326 41.7357C104.84 40.5001 104.975 39.1397 104.715 37.827C104.455 36.5143 103.811 35.3084 102.864 34.3621C101.918 33.4159 100.712 32.7718 99.3995 32.5117C98.0868 32.2516 96.7265 32.3871 95.4908 32.901C94.2552 33.4149 93.2 34.2841 92.4589 35.3984C91.7178 36.5127 91.3243 37.8219 91.3282 39.1601C91.3333 40.9456 92.0449 42.6566 93.3074 43.9191C94.57 45.1817 96.2809 45.8933 98.0664 45.8984ZM98.0664 36.3086C98.6312 36.3047 99.1845 36.4686 99.656 36.7796C100.127 37.0906 100.496 37.5346 100.715 38.0553C100.934 38.576 100.993 39.1499 100.885 39.7044C100.777 40.2588 100.507 40.7687 100.109 41.1695C99.7112 41.5702 99.2032 41.8438 98.6495 41.9554C98.0958 42.067 97.5215 42.0117 96.9993 41.7964C96.4771 41.5812 96.0306 41.2157 95.7164 40.7464C95.4022 40.277 95.2344 39.7249 95.2344 39.1601C95.2344 38.4072 95.5321 37.6849 96.0627 37.1506C96.5932 36.6164 97.3135 36.3137 98.0664 36.3086Z" fill="#1D484E"/>
<path d="M81.0937 36.25C83.1334 36.25 85.1272 35.6452 86.8231 34.512C88.5189 33.3789 89.8407 31.7683 90.6213 29.8839C91.4018 27.9996 91.606 25.9261 91.2081 23.9256C90.8102 21.9252 89.828 20.0877 88.3858 18.6455C86.9436 17.2032 85.106 16.2211 83.1056 15.8232C81.1052 15.4252 79.0317 15.6295 77.1473 16.41C75.263 17.1905 73.6524 18.5123 72.5192 20.2082C71.3861 21.9041 70.7813 23.8979 70.7812 25.9375C70.7812 28.6725 71.8677 31.2956 73.8017 33.2295C75.7357 35.1635 78.3587 36.25 81.0937 36.25ZM81.0937 19.5313C82.3608 19.5313 83.5994 19.907 84.6529 20.6109C85.7064 21.3148 86.5275 22.3154 87.0123 23.4859C87.4972 24.6565 87.6241 25.9446 87.3769 27.1873C87.1297 28.43 86.5196 29.5715 85.6236 30.4674C84.7277 31.3633 83.5862 31.9735 82.3435 32.2207C81.1009 32.4678 79.8128 32.341 78.6422 31.8561C77.4716 31.3712 76.4711 30.5501 75.7671 29.4966C75.0632 28.4431 74.6875 27.2045 74.6875 25.9375C74.6927 24.24 75.3692 22.6136 76.5695 21.4133C77.7698 20.213 79.3963 19.5364 81.0937 19.5313Z" fill="#1D484E"/>
<path d="M32.5782 65.7029C32.5743 67.045 32.969 68.358 33.7122 69.4755C34.4554 70.593 35.5137 71.4647 36.7529 71.9801C37.9921 72.4955 39.3564 72.6314 40.6729 72.3705C41.9894 72.1096 43.1988 71.4637 44.1478 70.5147C45.0968 69.5657 45.7427 68.3563 46.0035 67.0398C46.2644 65.7233 46.1286 64.359 45.6132 63.1198C45.0978 61.8806 44.2261 60.8224 43.1086 60.0791C41.9911 59.3359 40.6781 58.9412 39.336 58.9451C37.5437 58.9451 35.8248 59.6571 34.5575 60.9244C33.2901 62.1917 32.5782 63.9106 32.5782 65.7029ZM42.2071 65.7029C42.2109 66.2716 42.0458 66.8286 41.7327 67.3033C41.4196 67.778 40.9726 68.149 40.4483 68.3693C39.924 68.5896 39.3461 68.6493 38.7879 68.5407C38.2297 68.4322 37.7163 68.1603 37.3128 67.7595C36.9093 67.3588 36.6339 66.8472 36.5216 66.2898C36.4092 65.7323 36.4649 65.154 36.6816 64.6283C36.8983 64.1025 37.2663 63.653 37.7389 63.3366C38.2114 63.0203 38.7673 62.8514 39.336 62.8513C40.0941 62.8513 40.8214 63.1511 41.3593 63.6853C41.8971 64.2196 42.2019 64.9448 42.2071 65.7029Z" fill="#1D484E"/>
<path d="M72.8711 93.75C72.8711 95.6235 73.4267 97.455 74.4675 99.0127C75.5084 100.57 76.9878 101.785 78.7187 102.502C80.4496 103.219 82.3543 103.406 84.1918 103.041C86.0293 102.675 87.7171 101.773 89.0419 100.448C90.3667 99.1234 91.2689 97.4355 91.6344 95.598C91.9999 93.7605 91.8123 91.8559 91.0953 90.125C90.3784 88.3941 89.1642 86.9146 87.6065 85.8738C86.0487 84.8329 84.2173 84.2773 82.3437 84.2773C79.8314 84.2773 77.422 85.2754 75.6456 87.0518C73.8691 88.8283 72.8711 91.2377 72.8711 93.75ZM87.8906 93.75C87.8906 94.8509 87.5642 95.9271 86.9525 96.8425C86.3409 97.7579 85.4715 98.4714 84.4544 98.8927C83.4373 99.314 82.318 99.4242 81.2383 99.2094C80.1585 98.9947 79.1667 98.4645 78.3882 97.686C77.6097 96.9076 77.0795 95.9157 76.8648 94.8359C76.65 93.7562 76.7602 92.637 77.1815 91.6198C77.6028 90.6027 78.3163 89.7333 79.2317 89.1217C80.1471 88.5101 81.2233 88.1836 82.3242 88.1836C83.8005 88.1836 85.2164 88.77 86.2603 89.814C87.3042 90.8579 87.8906 92.2737 87.8906 93.75Z" fill="#1D484E"/>
</svg>
