<svg width="735" height="421" viewBox="0 0 735 421" fill="none" xmlns="http://www.w3.org/2000/svg">
<rect y="62.4928" width="735" height="330" rx="160" fill="#EEF1D8"/>
<path d="M90.1682 318.728C90.3767 319.143 87.2964 315.057 88.8814 302.79C90.904 287.122 80.4716 286.071 80.4716 286.071C78.5562 285.811 76.5894 285.884 74.6981 286.287C72.8068 286.689 71.0328 287.412 69.4905 288.408L86.2274 319.629L90.1682 318.728Z" fill="#CCEADF"/>
<path d="M60.7748 327.852C60.7748 327.852 57.7089 322.715 48.4617 313.146C44.3275 308.868 42.6298 305.395 42.1691 302.686C41.8874 300.813 42.3594 298.907 43.5131 297.257C44.6668 295.607 46.439 294.305 48.5594 293.548C51.197 292.544 54.0286 291.944 56.9137 291.777L66.7528 324.914L60.7748 327.852Z" fill="#CCEADF"/>
<path d="M144.794 403.189C144.794 403.189 137.515 399.638 122.097 406.641C106.679 413.643 93.3911 411.39 93.3911 411.39C93.3911 411.39 87.27 410.606 83.978 407.447C83.978 407.447 82.7337 403.988 86.6922 400.804C86.6922 400.804 79.7897 387.11 97.8294 378.171L144.794 403.189Z" fill="#CCEADF"/>
<path d="M167.613 360.281C167.613 360.281 160.484 358.087 157.983 345.362C155.483 332.637 146.137 326.281 146.137 326.281C146.137 326.281 142.052 323.211 137.484 323.081C137.484 323.081 133.793 324.293 133.231 328.33C133.231 328.33 117.512 331.991 119.792 347.297L167.613 360.281Z" fill="#CCEADF"/>
<path d="M60.6677 287.741L69.7431 280.226C69.7431 280.226 80.6622 251.169 52.7086 237.919C52.7086 237.919 39.4847 246.652 51.1503 261.608C48.8528 261.821 46.6985 262.666 45.0389 264.006C43.4392 265.286 42.485 267.012 42.3713 268.832C42.2576 270.652 42.993 272.428 44.4272 273.797C50.0314 279.222 53.2802 286.041 53.6722 293.202L60.6677 287.741Z" fill="#CCEADF"/>
<path d="M161.259 355.054L149.046 407.118C149.046 407.118 80.8674 399.292 61.472 333.032C61.472 333.032 59.2646 318.543 58.4006 312.611L54.4866 298.775C54.182 296.891 53.9061 295.004 53.6731 293.205C53.503 291.881 53.6692 290.538 54.1613 289.261C54.6533 287.984 55.4605 286.801 56.5319 285.786C59.9157 282.601 64.6552 280.608 69.7439 280.229C69.7439 280.229 79.3564 338.677 161.259 355.054Z" fill="white"/>
<path d="M161.258 355.054C159.44 354.69 157.669 354.299 155.921 353.894C154.401 354.984 152.955 356.142 151.59 357.363L150.908 357.972L150.901 357.993C144.802 363.655 135.83 374.856 137.933 390.438L137.926 390.458L138.054 391.297C138.941 396.45 140.763 401.452 143.461 406.137C145.301 406.54 147.166 406.868 149.048 407.117L161.258 355.054Z" fill="#CCEADF"/>
<path d="M102.627 377.309C105.141 378.489 107.291 380.124 108.916 382.093C111.424 385.11 114.588 387.717 118.253 389.784C130.629 396.769 146.348 389.192 146.348 389.192L155.645 378.993L161.26 355.055C151.773 353.19 142.557 350.529 133.756 347.116L125.604 355.635C114.669 355.076 107.244 356.783 102.312 358.951C100.407 359.774 98.7864 360.985 97.607 362.466C96.4275 363.948 95.7294 365.649 95.5805 367.405C95.4316 369.16 95.837 370.911 96.7573 372.486C97.6776 374.062 99.0814 375.408 100.832 376.394C101.448 376.74 102.054 377.045 102.627 377.309Z" fill="#EB7149"/>
<path d="M155.919 353.895C154.399 354.985 152.953 356.143 151.588 357.364L150.906 357.973L150.899 357.993C144.8 363.656 135.828 374.857 137.931 390.439L137.924 390.458L138.051 391.298C138.08 391.481 138.125 391.671 138.158 391.858C141.006 391.249 143.757 390.354 146.348 389.193L155.645 378.994L161.26 355.056C159.44 354.69 157.669 354.299 155.919 353.895Z" fill="#F04912"/>
<path d="M116.79 339.063C98.6021 346.759 116.045 364.675 116.045 364.675C116.045 364.675 127.053 367.822 134.832 365.999C142.611 364.177 139.712 357.532 139.712 357.532C138.569 355.101 137.887 351.446 137.494 348.509C130.234 345.912 123.302 342.749 116.79 339.063Z" fill="#1D484E"/>
<path d="M211.825 396.409C213.1 396.139 214.285 395.626 215.283 394.913C216.281 394.2 217.065 393.306 217.57 392.304C220.015 387.357 220.187 381.873 218.053 376.887C217.627 375.831 216.894 374.881 215.918 374.117C214.941 373.352 213.749 372.798 212.446 372.501L211.971 372.392C210.637 372.108 209.46 371.47 208.62 370.577C207.129 368.928 203.209 366.9 196.613 365.295L196.224 361.465C195.788 359.926 194.835 358.524 193.472 357.42C192.109 356.316 190.392 355.552 188.514 355.216C188.162 355.158 187.657 355.083 187.09 355.004C186.127 354.879 185.137 354.97 184.224 355.268C183.311 355.566 182.509 356.061 181.903 356.699L180.245 358.437C180.245 358.437 174.247 355.236 161.257 355.056C158.935 356.467 156.791 358.069 154.859 359.835L142.488 390.764C143.497 396.503 145.715 402.037 149.045 407.12C156.031 407.524 163.044 407.627 170.056 407.427L170.64 409.655C170.75 410.123 170.973 410.568 171.296 410.963C171.849 411.616 172.589 412.145 173.453 412.506C174.316 412.866 175.277 413.047 176.252 413.032C179.745 412.95 183.212 412.446 186.543 411.537C187.559 411.268 188.475 410.787 189.202 410.14C189.929 409.494 190.441 408.705 190.687 407.852L191.541 405.09C191.541 405.09 202.028 403.736 208.783 397.908C209.609 397.184 210.664 396.664 211.825 396.409Z" fill="white"/>
<path d="M120.64 372.394C120.8 372.439 120.975 372.443 121.14 372.407C121.306 372.371 121.455 372.295 121.57 372.19C121.685 372.085 121.76 371.954 121.786 371.815C121.812 371.676 121.787 371.534 121.716 371.408C119.436 367.17 117.868 362.69 117.052 358.089C116.337 355.838 114.948 353.778 113.009 352.097C111.07 350.415 108.644 349.165 105.951 348.46C105.951 348.46 95.1565 345.07 88.1505 339.173C88.0156 339.059 87.835 338.988 87.6406 338.973C87.4462 338.958 87.2506 339 87.0883 339.091C86.926 339.183 86.8076 339.319 86.7539 339.474C86.7003 339.63 86.7149 339.795 86.7952 339.94C91.73 348.935 103.716 367.541 120.64 372.394Z" fill="#CCEADF"/>
<path d="M126.219 401.057C127.192 400.388 128.061 399.623 128.807 398.78C134.222 392.605 128.219 384.236 119.051 384.862C116.164 385.093 113.336 385.713 110.68 386.697C107.806 387.699 104.746 388.274 101.643 388.394C109.124 393.473 117.384 397.729 126.219 401.057Z" fill="#1D484E"/>
<path d="M75.0353 326.439C81.2916 319.49 83.9079 314.752 84.9192 311.669C83.0566 309.226 81.4176 306.826 79.9705 304.508C76.7261 303.375 73.3027 302.613 69.7943 302.242C67.171 301.954 64.633 301.301 62.2881 300.312C59.8684 299.324 57.2017 298.799 54.4845 298.775C55.906 307.581 57.8666 316.358 57.8666 316.358C59.8983 330.301 63.8962 342.126 69.1263 352.155C67.5598 345.019 67.3922 334.928 75.0353 326.439Z" fill="#EB7149"/>
<path d="M74.6811 361.488C78.8078 359.343 83.5036 355.488 81.8627 349.432C81.8627 349.432 78.8165 333.34 61.484 333.028C64.3137 342.975 68.752 352.547 74.6811 361.488Z" fill="#1D484E"/>
<path d="M72.1098 309.768C73.8317 310.018 75.6096 309.903 77.2758 309.432C78.942 308.962 80.4417 308.152 81.6337 307.08C78.7975 302.858 76.3514 298.463 74.3156 293.931C71.6036 294.582 69.2898 296.072 67.8641 298.085C66.4385 300.098 66.0131 302.476 66.678 304.716C67.3603 307.032 68.8652 309.278 72.1098 309.768Z" fill="#1D484E"/>
<path d="M142.496 390.761L151.172 390.307C153.302 390.196 155.309 389.41 156.771 388.114L156.912 387.988C157.864 387.155 159.129 386.609 160.496 386.441C161.864 386.272 163.254 386.492 164.435 387.063C168.09 388.789 173.801 390.327 179.171 386.982C188.021 381.471 174.158 370.102 174.158 370.102C174.158 370.102 165.407 360.566 154.861 359.834C148.541 365.48 140.141 376.009 142.496 390.761Z" fill="#EB7149"/>
<path d="M186.233 407.404C185.982 406.195 183.363 405.584 180.381 406.039C177.4 406.494 175.186 407.842 175.437 409.051C175.688 410.259 178.307 410.87 181.289 410.416C184.27 409.961 186.484 408.612 186.233 407.404Z" fill="#1D484E"/>
<path d="M196.613 365.295L196.224 361.465C195.788 359.926 194.835 358.524 193.472 357.42C192.109 356.315 190.392 355.552 188.514 355.216C188.162 355.158 187.657 355.083 187.09 355.004C186.127 354.879 185.137 354.97 184.224 355.268C183.311 355.566 182.509 356.061 181.903 356.699L180.245 358.437C188.796 361.069 192.065 362.576 196.613 365.295Z" fill="#CCEADF"/>
<path d="M212.446 372.501L211.971 372.392C210.682 372.115 209.539 371.509 208.703 370.66C209.554 371.534 216.82 379.621 211.825 396.409C213.1 396.139 214.285 395.626 215.283 394.913C216.281 394.2 217.065 393.306 217.57 392.304C220.015 387.357 220.187 381.873 218.053 376.887C217.627 375.831 216.894 374.881 215.918 374.117C214.941 373.353 213.75 372.798 212.446 372.501Z" fill="#CCEADF"/>
<path d="M613.867 111.018C613.62 110.578 617.07 114.855 616.686 128.327C616.197 145.534 626.643 146.073 626.643 146.073C628.568 146.245 630.511 146.051 632.347 145.502C634.184 144.952 635.873 144.061 637.306 142.885L617.687 109.806L613.867 111.018Z" fill="#F04912"/>
<path d="M642.13 99.3551C642.13 99.3551 645.667 104.78 655.763 114.678C660.276 119.103 662.296 122.793 663.015 125.72C663.476 127.747 663.192 129.853 662.208 131.72C661.224 133.587 659.592 135.111 657.563 136.059C655.045 137.308 652.295 138.128 649.451 138.478L636.487 102.908L642.13 99.3551Z" fill="#F04912"/>
<path d="M551.525 22.0764C551.525 22.0764 559.087 25.5258 573.697 16.9902C588.308 8.45455 601.705 10.1379 601.705 10.1379C601.705 10.1379 607.851 10.6366 611.421 13.8903C611.421 13.8903 612.99 17.5906 609.373 21.2938C609.373 21.2938 617.543 35.8284 600.52 46.6287L551.525 22.0764Z" fill="#F04912"/>
<path d="M533.052 70.2058C533.052 70.2058 540.333 72.1837 544.044 85.9174C547.756 99.6511 557.638 106.04 557.638 106.04C557.638 106.04 561.986 109.15 566.529 109.025C566.529 109.025 570.071 107.489 570.237 103.053C570.237 103.053 585.47 98.1447 581.727 81.5824L533.052 70.2058Z" fill="#F04912"/>
<path d="M646.119 143.098L637.848 151.823C637.848 151.823 629.834 184.151 658.834 196.976C658.834 196.976 671.101 186.681 658.086 171.047C660.344 170.682 662.398 169.634 663.914 168.076C665.376 166.587 666.156 164.648 666.092 162.657C666.029 160.665 665.127 158.77 663.572 157.36C657.49 151.77 653.609 144.521 652.527 136.734L646.119 143.098Z" fill="#F04912"/>
<path d="M539.859 75.5373L546.929 18.0392C546.929 18.0392 594.428 21.2114 625.094 63.4717L640.938 93.7473C640.938 93.7473 644.529 109.421 645.96 115.842L651.18 130.704C651.665 132.742 652.125 134.783 652.526 136.732C652.823 138.167 652.788 139.641 652.424 141.063C652.06 142.484 651.374 143.822 650.41 144.991C647.363 148.662 642.856 151.112 637.847 151.821C637.847 151.821 622.657 88.6304 539.859 75.5373Z" fill="#EB7149"/>
<path d="M553.506 18.9479C551.334 18.5356 549.138 18.2323 546.929 18.0392L539.859 75.5373C541.997 75.8753 544.079 76.2542 546.128 76.6577C547.423 75.4539 548.65 74.1908 549.803 72.8734L550.526 72.0481L550.534 72.0182C556.092 65.3764 563.872 52.5544 560.321 35.6041L560.328 35.5757L560.086 34.5177C558.739 29.0657 556.523 23.8206 553.506 18.9479Z" fill="#F04912"/>
<path d="M595.843 47.8491C593.236 46.7085 590.946 45.0502 589.144 42.9975C586.365 39.8524 582.975 37.1936 579.14 35.152C566.193 28.2539 551.339 37.434 551.339 37.434L543.108 49.0994L539.857 75.5357C549.445 77.0182 558.841 79.3833 567.898 82.594L575.157 72.8269C586.055 72.8002 593.251 70.5057 597.933 67.8544C599.741 66.8457 601.231 65.4304 602.257 63.7459C603.284 62.0614 603.811 60.1652 603.789 58.2414C603.766 56.3176 603.195 54.4318 602.13 52.7673C601.065 51.1027 599.543 49.7161 597.711 48.7421C597.067 48.4004 596.437 48.104 595.843 47.8491Z" fill="#1D484E"/>
<path d="M551.339 37.4334L543.107 49.0988L539.857 75.5351C541.995 75.873 544.077 76.2519 546.126 76.6554C547.422 75.4515 548.648 74.1884 549.802 72.8711L550.524 72.0458L550.532 72.0159C556.09 65.3742 563.87 52.5522 560.319 35.6019L560.327 35.5735L560.084 34.5154C560.031 34.2923 559.963 34.0682 559.906 33.8448C556.888 34.692 554.007 35.8987 551.339 37.4334Z" fill="#1D484E"/>
<path d="M585.501 90.3883C602.792 80.9372 583.765 62.4093 583.765 62.4093C583.765 62.4093 572.544 59.6164 565.007 62.0566C557.47 64.4969 560.986 71.5754 560.986 71.5754C562.356 74.1609 563.384 78.108 564.058 81.2879C571.508 83.6992 578.688 86.7463 585.501 90.3883Z" fill="white"/>
<path d="M485.714 33.3752C484.476 33.7442 483.351 34.3721 482.431 35.208C481.51 36.044 480.82 37.0645 480.415 38.187C478.469 43.7251 478.829 49.7172 481.427 55.0314C481.951 56.158 482.77 57.1523 483.812 57.9288C484.855 58.7053 486.09 59.2407 487.411 59.489L487.893 59.5796C489.243 59.8123 490.472 60.4392 491.391 61.3645C493.029 63.0759 497.113 65.0604 503.808 66.4263L504.565 70.5813C505.146 72.2347 506.227 73.7076 507.685 74.8329C509.143 75.9581 510.92 76.6908 512.815 76.9478C513.169 76.9909 513.679 77.0464 514.248 77.0961C515.214 77.177 516.188 77.0199 517.064 76.6415C517.94 76.263 518.688 75.6771 519.227 74.9457L520.702 72.9502C520.702 72.9502 526.958 76.0924 539.857 75.5323C542.023 73.8576 543.994 71.9859 545.738 69.9465L555.011 35.4916C553.456 29.2915 550.72 23.3841 546.927 18.0342C539.96 18 532.996 18.2964 526.063 18.9224L525.268 16.5271C525.114 16.0245 524.852 15.5544 524.496 15.1439C523.884 14.4642 523.099 13.9297 522.208 13.5867C521.316 13.2437 520.346 13.1025 519.382 13.1752C515.926 13.469 512.537 14.2206 509.322 15.4057C508.341 15.7581 507.478 16.3366 506.82 17.0841C506.162 17.8315 505.731 18.7218 505.57 19.6667L504.989 22.7289C504.989 22.7289 494.722 24.8159 488.588 31.5663C487.838 32.403 486.842 33.0302 485.714 33.3752Z" fill="#EB7149"/>
<path d="M578.457 54.2586C578.293 54.2191 578.12 54.2243 577.959 54.2735C577.799 54.3228 577.658 54.4139 577.554 54.5355C577.45 54.6571 577.388 54.8037 577.376 54.957C577.364 55.1102 577.402 55.2633 577.486 55.397C580.156 59.8861 582.145 64.6812 583.399 69.6524C584.326 72.066 585.903 74.2317 587.988 75.953C590.074 77.6742 592.6 78.8965 595.339 79.5087C595.339 79.5087 606.367 82.5792 613.887 88.6019C614.032 88.7192 614.218 88.7863 614.412 88.7914C614.607 88.7964 614.797 88.739 614.949 88.6295C615.101 88.5199 615.205 88.3651 615.243 88.1926C615.281 88.02 615.251 87.8408 615.157 87.6866C609.394 78.1619 595.708 58.5662 578.457 54.2586Z" fill="#F04912"/>
<path d="M570.15 23.3203C569.251 24.1068 568.463 24.9916 567.804 25.9544C563.033 33.0048 569.796 41.7831 578.826 40.5671C581.666 40.1472 584.411 39.3062 586.949 38.0781C589.701 36.8176 592.68 36.0125 595.745 35.701C587.835 30.5966 579.233 26.4355 570.15 23.3203Z" fill="white"/>
<path d="M628.126 101.727C622.595 109.67 620.459 114.991 619.755 118.412C621.838 120.969 623.696 123.49 625.355 125.934C628.682 126.981 632.15 127.613 635.665 127.813C638.294 127.975 640.874 128.539 643.295 129.482C645.79 130.418 648.485 130.836 651.182 130.704C648.92 121.182 646.126 111.722 646.126 111.722C644.783 105.644 643.051 99.6409 640.937 93.7447C638.222 86.2178 633.967 79.7729 630.43 73.664C632.675 81.357 634.883 92.0229 628.126 101.727Z" fill="#1D484E"/>
<path d="M625.085 63.4775C621.201 66.0579 616.917 70.5362 619.131 77.0455C619.131 77.0455 623.709 94.4193 640.926 93.7509C637.157 83.066 631.83 72.8849 625.085 63.4775Z" fill="white"/>
<path d="M632.641 119.739C630.909 119.567 629.157 119.796 627.551 120.406C625.944 121.017 624.535 121.987 623.457 123.227C626.678 127.666 629.529 132.317 631.986 137.141C634.613 136.274 636.763 134.514 637.982 132.235C639.2 129.957 639.392 127.338 638.516 124.933C637.618 122.446 635.905 120.085 632.641 119.739Z" fill="white"/>
<path d="M555.007 35.4978L546.449 36.5019C544.348 36.7473 542.434 37.7217 541.11 39.22L540.981 39.365C540.118 40.3297 538.917 40.9988 537.577 41.262C536.237 41.5251 534.838 41.3666 533.611 40.8126C529.82 39.1428 524.008 37.7975 519.008 41.7589C510.766 48.2851 525.612 59.8788 525.612 59.8788C525.612 59.8788 535.212 69.7697 545.741 69.9541C551.46 63.4248 558.77 51.4512 555.007 35.4978Z" fill="#1D484E"/>
<path d="M520.574 17.4678C520.209 16.1642 517.552 15.6503 514.64 16.32C511.728 16.9897 509.663 18.5893 510.028 19.8929C510.394 21.1965 513.051 21.7103 515.963 21.0406C518.875 20.371 520.94 18.7713 520.574 17.4678Z" fill="#1D484E"/>
<path d="M504.571 70.5816C505.152 72.235 506.233 73.7078 507.691 74.8331C509.149 75.9584 510.926 76.6911 512.821 76.9481C513.175 76.9912 513.684 77.0467 514.253 77.0963C515.22 77.1773 516.193 77.0202 517.07 76.6417C517.946 76.2633 518.694 75.6774 519.233 74.946L520.707 72.9505L503.816 66.4204L504.571 70.5816Z" fill="#F04912"/>
<path d="M487.998 32.134C487.347 32.6964 486.567 33.1226 485.713 33.3825C484.475 33.7516 483.35 34.3795 482.43 35.2154C481.509 36.0513 480.819 37.0718 480.414 38.1943C478.47 43.7303 478.83 49.7195 481.427 55.0314C481.951 56.1579 482.77 57.1522 483.812 57.9287C484.855 58.7052 486.09 59.2406 487.412 59.4889L487.893 59.5795C487.893 59.5795 480.483 45.3066 487.998 32.134Z" fill="#F04912"/>
</svg>
