<svg width="80" height="80" viewBox="0 0 80 80" fill="none" xmlns="http://www.w3.org/2000/svg">
<path d="M63.3333 22.5334V6.66675H20V22.5334C19.9986 24.2849 20.3423 26.0195 21.0115 27.6381C21.6807 29.2567 22.6622 30.7276 23.9 31.9667L31.9667 40.0001L23.9 48.0334C21.4185 50.5482 20.0188 53.9338 20 57.4667V73.3334H63.3333V57.4667C63.3145 53.9338 61.9148 50.5482 59.4333 48.0334L51.3667 40.0001L59.4333 31.9667C60.6711 30.7276 61.6527 29.2567 62.3218 27.6381C62.991 26.0195 63.3347 24.2849 63.3333 22.5334ZM56.6667 22.5334C56.6592 24.2987 55.952 25.9889 54.7 27.2334L45.5 36.4667C44.5637 37.4042 44.0377 38.6751 44.0377 40.0001C44.0377 41.3251 44.5637 42.5959 45.5 43.5334L54.7 52.7667C55.952 54.0112 56.6592 55.7015 56.6667 57.4667V66.6667H26.6667V57.4667C26.6741 55.7015 27.3814 54.0112 28.6333 52.7667L37.8333 43.5334C38.7697 42.5959 39.2956 41.3251 39.2956 40.0001C39.2956 38.6751 38.7697 37.4042 37.8333 36.4667L28.6333 27.2334C27.3814 25.9889 26.6741 24.2987 26.6667 22.5334V13.3334H56.6667V22.5334Z" fill="#1D484E"/>
</svg>
