<svg width="430" height="120" viewBox="0 0 430 120" fill="none" xmlns="http://www.w3.org/2000/svg">
<path d="M294.032 90.2857L293.842 90.6039C290.677 96.3466 286.851 101.603 282.457 106.239C277.975 110.94 272.96 114.971 267.542 118.231C266.525 118.868 265.475 119.434 264.362 120H415.74V90.2857H294.032Z" fill="#64C3D1"/>
<path d="M9.7767 0H0V81.1429H38.3929V70.8281H9.7767V0Z" fill="#454545"/>
<path d="M88.739 28.211C88.1871 27.5093 87.5932 26.851 86.9616 26.2411C84.6679 23.9323 81.9707 22.1924 79.0443 21.1335C75.014 19.6644 70.7612 19.1364 66.5445 19.5818C62.328 20.0271 58.2357 21.4363 54.5168 23.7238C50.0164 26.4362 46.2273 30.4371 43.5294 35.3251C40.8712 40.14 39.4711 45.7041 39.4899 51.3774C39.4927 54.8777 40.0058 58.3535 41.0088 61.6655C41.8667 64.8805 43.2474 67.8868 45.0806 70.5308C48.038 74.5066 51.7636 77.6643 55.9709 79.7609C60.2354 82.0937 64.9021 83.3392 69.6404 83.4091C75.8885 83.6669 82.0078 81.3598 86.8647 76.9152C87.5456 76.2495 88.1728 75.517 88.739 74.7263V82.0227H98.7244V20.6958H88.739V28.211ZM86.1861 41.0529C87.8623 44.2972 88.7434 47.9866 88.739 51.7422C88.7717 55.4496 87.8757 59.0921 86.1536 62.2493C84.4301 65.4737 81.9988 68.1418 79.0946 69.995C76.1904 71.8485 72.9117 72.8246 69.5758 72.8291C66.0903 72.8243 62.6677 71.7798 59.6549 69.8011C56.6667 67.9995 54.1486 65.3454 52.3516 62.1032C50.5721 58.9697 49.6402 55.3185 49.6693 51.5964C49.6351 47.7411 50.5528 43.9513 52.3193 40.6516C54.1465 37.5403 56.6648 35.0245 59.6226 33.3552C62.7462 31.2998 66.2841 30.1819 69.8989 30.1083C73.1952 30.1033 76.432 31.0988 79.2705 32.9904C82.1686 34.9374 84.5555 37.7203 86.1861 41.0529Z" fill="#454545"/>
<path d="M346.846 28.1954C342.565 23.2398 336.857 20.1731 330.75 19.5475C324.644 18.9219 318.542 20.7785 313.539 24.783C313.102 25.2469 312.687 25.7387 312.299 26.2558V20.6161H302.755V81.1428H312.745V49.3527C312.67 46.5614 312.852 43.7686 313.286 41.0192C313.634 39.374 314.31 37.8391 315.257 36.5291C316.632 34.547 318.411 32.9697 320.443 31.9312C322.726 30.7359 325.212 30.1112 327.728 30.0993C331.076 29.9319 334.375 31.0599 337.08 33.2962C339.528 35.4841 341.116 38.6705 341.502 42.1686C341.82 44.5467 341.979 46.9481 341.981 49.3527V81.1428H352.096V49.3527C352.224 44.8374 351.774 40.3246 350.76 35.9543C349.893 33.1161 348.566 30.4848 346.846 28.1954Z" fill="#454545"/>
<path d="M406.047 20.5862V28.2099C405.506 27.5078 404.924 26.8497 404.307 26.2402C402.109 23.9405 399.527 22.2015 396.726 21.1333C392.851 19.6644 388.763 19.1365 384.708 19.5817C380.656 20.027 376.721 21.4361 373.146 23.7232C368.82 26.4353 365.177 30.4357 362.582 35.323C360.028 40.1373 358.681 45.7007 358.699 51.3732C358.701 54.873 359.195 58.3484 360.159 61.66C360.953 64.8496 362.237 67.8414 363.949 70.4876C366.8 74.4949 370.406 77.6673 374.481 79.7529C378.572 82.0803 383.047 83.3254 387.593 83.4007C393.662 83.7124 399.619 81.4024 404.339 76.9077C404.992 76.2421 405.595 75.5097 406.139 74.7191V82.0145H415.74V20.6956L406.047 20.5862ZM406.047 51.5557C406.079 55.2626 405.216 58.9044 403.561 62.0612C401.904 65.2854 399.567 67.9529 396.775 69.8061C393.982 71.6593 390.831 72.6353 387.624 72.6398C384.285 72.676 380.995 71.6823 378.086 69.7581C375.213 67.9567 372.791 65.3029 371.064 62.0612C369.354 58.9278 368.457 55.2773 368.485 51.5557C368.453 47.7009 369.336 43.9116 371.033 40.6123C372.785 37.4511 375.205 34.875 378.055 33.1344C381.088 31.2066 384.487 30.2151 387.934 30.2527C391.103 30.2477 394.214 31.2431 396.944 33.1344C399.714 35.0411 402.008 37.7713 403.593 41.05C405.18 44.2397 406.024 47.8621 406.047 51.5557Z" fill="#454545"/>
<path fill-rule="evenodd" clip-rule="evenodd" d="M183.635 46.8813C189.164 42.9748 195.452 40.6374 201.958 40.0695C214.377 39.3892 226.603 43.724 236.439 52.2949C244.892 59.5967 255.005 64.0585 265.609 65.1659C271.624 65.7248 277.656 64.3577 283.01 61.2222V61.8316C282.379 65.3309 281.419 68.7441 280.147 72.0136C278.904 75.2428 277.369 78.3185 275.567 81.192C271.919 87.0855 267.283 92.116 261.92 95.9989C259.199 97.9556 256.324 99.6239 253.331 100.982C250.261 102.411 247.06 103.457 243.788 104.102C240.506 104.806 237.172 105.154 233.832 105.141C229.431 105.178 225.047 104.564 220.789 103.313C212.329 100.845 204.553 96.025 198.172 89.2946C195.008 86.0165 192.257 82.2647 189.997 78.1445C187.775 74.1901 186.051 69.9065 184.876 65.417C183.726 60.9193 183.158 56.2584 183.19 51.5779C183.317 49.9288 183.381 48.4228 183.635 46.8813Z" fill="#64C3D1"/>
<path d="M291.072 21.5791L290.659 20.7154H278.825L280.099 23.1265C282.28 27.2634 283.981 31.7026 285.156 36.3333C286.398 41.2115 287.03 46.2628 287.032 51.3393C287.04 59.0905 285.633 66.7597 282.898 73.8664L282.58 74.6583C279.909 81.435 276.082 87.5495 271.32 92.6512C268.861 95.3547 266.164 97.7663 263.272 99.8483C260.402 101.93 257.368 103.701 254.206 105.138C250.945 106.645 247.555 107.766 244.092 108.485C235.926 110.21 227.529 109.928 219.47 107.657C210.405 104.974 202.067 99.7941 195.2 92.5791C191.891 89.013 188.994 84.9864 186.58 80.5958C184.196 76.2705 182.344 71.5971 181.077 66.7053C179.859 61.8467 179.238 56.8214 179.232 51.7713C179.179 41.6195 181.624 31.6514 186.294 22.9825L187.566 20.5714H175.924L175.51 21.4351C170.878 31.4247 168.622 42.6049 168.962 53.8788C169.302 65.1529 172.227 76.133 177.451 85.7419C180.28 90.9512 183.714 95.7078 187.661 99.8843C191.124 103.569 194.932 106.815 199.017 109.565L201.117 110.824C205.985 113.87 211.181 116.192 216.576 117.733C227.527 120.756 238.96 120.756 249.912 117.733C255.298 116.179 260.483 113.845 265.34 110.788C274.959 104.954 283.038 96.3355 288.749 85.8138C291.515 80.6294 293.654 75.0501 295.113 69.2243C297.842 58.0824 297.984 46.3324 295.526 35.1096C294.504 30.4217 293.01 25.8819 291.072 21.5791Z" fill="#454545"/>
<path d="M291.072 21.5791L290.659 20.7154H278.825L280.099 23.1265C282.28 27.2634 283.981 31.7026 285.156 36.3333C286.398 41.2115 287.03 46.2628 287.032 51.3393C287.04 59.0905 285.633 66.7597 282.898 73.8664L282.58 74.6583C279.909 81.435 276.082 87.5495 271.32 92.6512C268.861 95.3547 266.164 97.7663 263.272 99.8483C260.402 101.93 257.368 103.701 254.206 105.138C250.945 106.645 247.555 107.766 244.092 108.485C235.926 110.21 227.529 109.928 219.47 107.657C210.405 104.974 202.067 99.7941 195.2 92.5791C191.891 89.013 188.994 84.9864 186.58 80.5958C184.196 76.2705 182.344 71.5971 181.077 66.7053C179.859 61.8467 179.238 56.8214 179.232 51.7713C179.179 41.6195 181.624 31.6514 186.294 22.9825L187.566 20.5714H175.924L175.51 21.4351C170.878 31.4247 168.622 42.6049 168.962 53.8788C169.302 65.1529 172.227 76.133 177.451 85.7419C180.28 90.9512 183.714 95.7078 187.661 99.8843C191.124 103.569 194.932 106.815 199.017 109.565L201.117 110.824C205.985 113.87 211.181 116.192 216.576 117.733C227.527 120.756 238.96 120.756 249.912 117.733C255.298 116.179 260.483 113.845 265.34 110.788C274.959 104.954 283.038 96.3355 288.749 85.8138C291.515 80.6294 293.654 75.0501 295.113 69.2243C297.842 58.0824 297.984 46.3324 295.526 35.1096C294.504 30.4217 293.01 25.8819 291.072 21.5791Z" fill="#454545"/>
<path fill-rule="evenodd" clip-rule="evenodd" d="M247.908 29.7143C250.994 29.7143 265.031 31.1129 267.056 38.1402C267.852 40.4579 267.852 42.9864 267.056 45.3041C264.926 46.5626 262.458 47.0773 260.021 46.7709C252.654 46.1909 248.44 32.7504 247.908 29.7143Z" fill="#64C3D1"/>
<path fill-rule="evenodd" clip-rule="evenodd" d="M245.986 19.4286C247.875 20.6098 249.392 22.4652 250.312 24.7227C251.251 27.0159 251.452 29.6245 250.88 32.0756C248.917 33.1222 246.715 33.4085 244.601 32.8925C242.486 32.3765 240.569 31.085 239.133 29.2082C241.551 29.6071 244.016 29.0641 246.144 27.6639C246.933 25.0715 246.933 22.2416 246.144 19.6491L245.986 19.4286Z" fill="#64C3D1"/>
<path fill-rule="evenodd" clip-rule="evenodd" d="M233.157 20.5714C233.479 20.583 233.792 20.6934 234.054 20.8887C234.317 21.0841 234.52 21.3558 234.636 21.67C234.752 21.9842 234.776 22.3269 234.706 22.6556C234.638 22.9842 234.476 23.2842 234.244 23.5182C234.012 23.7521 233.719 23.9096 233.4 23.9712C233.084 24.0326 232.756 23.9954 232.458 23.8641C232.159 23.7327 231.907 23.513 231.728 23.2325C231.55 22.9519 231.454 22.6228 231.454 22.2863C231.469 21.8261 231.655 21.3899 231.971 21.0699C232.29 20.7499 232.715 20.5712 233.157 20.5714Z" fill="#64C3D1"/>
<path fill-rule="evenodd" clip-rule="evenodd" d="M219.499 19.4286C220.145 19.4477 220.771 19.6314 221.297 19.9568C221.821 20.2823 222.227 20.735 222.46 21.2586C222.69 21.7823 222.741 22.3536 222.6 22.9014C222.462 23.4492 222.139 23.9494 221.676 24.3393C221.21 24.7294 220.625 24.992 219.989 25.0946C219.354 25.1972 218.698 25.1353 218.104 24.9163C217.509 24.6974 217.002 24.3313 216.645 23.8636C216.289 23.3961 216.097 22.8476 216.097 22.2865C216.126 21.5197 216.497 20.7928 217.133 20.2594C217.766 19.7261 218.616 19.4281 219.499 19.4286Z" fill="#64C3D1"/>
<path fill-rule="evenodd" clip-rule="evenodd" d="M205.793 25.2461C206.55 25.2734 207.284 25.5641 207.902 26.0817C208.521 26.5993 208.993 27.3205 209.264 28.1544C209.534 28.9885 209.587 29.8979 209.419 30.7682C209.251 31.6385 208.868 32.4306 208.319 33.0449C207.768 33.6592 207.077 34.0679 206.329 34.2197C205.582 34.3717 204.814 34.2597 204.121 33.8983C203.428 33.5367 202.841 32.9418 202.435 32.1884C202.028 31.4347 201.821 30.5566 201.838 29.6643C201.845 29.0616 201.954 28.4664 202.156 27.913C202.359 27.3598 202.653 26.8589 203.02 26.4391C203.387 26.0193 203.821 25.6888 204.297 25.4663C204.773 25.2441 205.282 25.1343 205.793 25.1434V25.2461Z" fill="#64C3D1"/>
<path d="M429.99 27.0048C430.057 28.3599 429.798 29.7092 429.253 30.8819C428.706 32.0546 427.893 32.9981 426.917 33.5927C425.943 34.1873 424.846 34.4064 423.773 34.2224C422.697 34.0382 421.69 33.4594 420.877 32.5587C420.065 31.658 419.486 30.4761 419.209 29.1627C418.935 27.8493 418.977 26.4634 419.333 25.1803C419.687 23.8974 420.338 22.7748 421.204 21.9549C422.068 21.135 423.108 20.6546 424.192 20.5744H424.568C425.259 20.5483 425.949 20.693 426.595 21.0001C427.242 21.3072 427.834 21.7707 428.338 22.3643C428.841 22.9578 429.245 23.6697 429.53 24.4592C429.813 25.2487 429.969 26.1003 429.99 26.9656V27.0048ZM420.399 27.0048C420.391 27.6806 420.49 28.3521 420.692 28.9795C420.893 29.6069 421.192 30.1782 421.57 30.6598C421.951 31.1414 422.402 31.5239 422.9 31.7849C423.399 32.046 423.933 32.1806 424.474 32.1803C425.001 32.1857 425.524 32.0607 426.012 31.8134C426.5 31.5659 426.943 31.2005 427.319 30.7382C427.696 30.2759 427.995 29.7255 428.2 29.1184C428.405 28.5116 428.513 27.86 428.517 27.2007C428.517 25.8385 428.084 24.5322 427.313 23.5688C426.545 22.6056 425.499 22.0644 424.411 22.0644C423.323 22.0644 422.278 22.6056 421.507 23.5688C420.738 24.5322 420.305 25.8385 420.305 27.2007L420.399 27.0048ZM423.533 30.3374H422.31V23.8681H424.348C424.981 23.8035 425.615 23.9813 426.166 24.3778C426.343 24.5398 426.488 24.7525 426.585 24.9981C426.683 25.2436 426.734 25.5148 426.73 25.7894C426.705 26.1654 426.581 26.5204 426.378 26.7977C426.172 27.0748 425.9 27.2582 425.603 27.3185C426.136 27.3185 426.386 28.0241 426.543 28.8869C426.626 29.4286 426.762 29.9555 426.949 30.4552H425.633C425.432 29.9624 425.296 29.4332 425.227 28.8869C425.227 28.2203 424.788 27.9065 424.129 27.9065H423.533V30.3374ZM423.533 26.7303H424.129C424.788 26.7303 425.351 26.4557 425.351 25.7894C425.351 25.1228 425.007 24.7698 424.222 24.7698H423.533V26.7303Z" fill="#454545"/>
<path d="M152.817 20.5946V28.4295C152.226 27.651 151.594 26.9153 150.925 26.2271C146.085 21.6546 140 19.247 133.768 19.4392C130.072 19.4337 126.408 20.2422 122.971 21.8222C116.384 25.0793 111.166 31.2292 108.451 38.9364C107.079 42.9193 106.384 47.1741 106.404 51.4651C106.371 56.9943 107.672 62.423 110.158 67.1352C112.648 71.9334 116.193 75.8717 120.427 78.5446C123.989 80.8627 127.935 82.2683 132.002 82.6668C136.068 83.0654 140.161 82.4478 144.006 80.8555C146.893 79.7294 149.538 77.8946 151.762 75.4755C152.155 75.0784 152.518 74.6435 152.848 74.1758C152.825 75.8822 152.69 77.584 152.445 79.2667C152.179 81.0021 151.643 82.6664 150.863 84.1771C149.371 87.0257 147.221 89.3279 144.657 90.8207C141.784 92.5493 138.585 93.4179 135.35 93.348C130.913 93.4853 126.586 91.7255 123.188 88.4015C122.366 87.577 121.617 86.6576 120.954 85.6574H109.63C110.526 88.1452 111.728 90.4683 113.198 92.5538C115.823 96.1599 119.11 99.0347 122.816 100.966C126.544 102.996 130.614 104.032 134.73 103.999C137.377 103.993 140.014 103.605 142.579 102.844C145.116 102.119 147.557 101.002 149.839 99.522C152.126 98.1139 154.218 96.3124 156.044 94.1784C159.036 90.8225 161.063 86.4714 161.846 81.7219C162.213 78.3937 162.379 75.0397 162.342 71.6846V20.7029L152.817 20.5946ZM150.304 61.647C148.718 64.8519 146.426 67.5068 143.665 69.3376C140.81 71.1515 137.61 72.1021 134.357 72.1021C131.105 72.1021 127.904 71.1515 125.05 69.3376C122.284 67.5215 120.007 64.8463 118.472 61.6109C116.886 58.3024 116.073 54.5676 116.115 50.7793C116.073 47.0661 116.899 43.4096 118.503 40.2002C120.038 37.0665 122.28 34.4817 124.988 32.7261C127.753 30.9197 130.876 29.986 134.047 30.0183C137.281 30.0317 140.46 31.0031 143.282 32.8414C146.105 34.6797 148.478 37.324 150.18 40.5252C151.796 43.655 152.654 47.236 152.662 50.8875C152.693 54.6515 151.88 58.3598 150.304 61.647Z" fill="#454545"/>
<path d="M322.98 112.617H315.469L314.035 116.571H308.24L316.31 93.7143H322.264L330.179 116.571H324.351L322.98 112.617ZM321.546 107.937L319.333 100.68L317.089 107.937H321.546Z" fill="#454545"/>
<path d="M359.796 115.773L354.764 116.571L353.106 114.575C351.321 115.554 349.33 116.023 347.323 115.939C345.735 115.979 344.155 115.697 342.666 115.108C341.285 114.574 340.019 113.747 338.946 112.679C337.879 111.662 337.046 110.399 336.508 108.986C335.932 107.522 335.644 105.948 335.664 104.361C335.662 102.873 335.983 101.404 336.601 100.069C337.263 98.796 338.143 97.6673 339.196 96.7419C340.313 95.7708 341.583 95.0162 342.948 94.5129C344.352 93.9816 345.833 93.7115 347.323 93.7143C348.875 93.7113 350.417 93.9812 351.887 94.5129C353.25 95.0071 354.514 95.7751 355.607 96.7752C356.664 97.7681 357.508 98.9942 358.076 100.368C358.883 102.335 359.141 104.506 358.818 106.624C358.498 108.742 357.609 110.717 356.263 112.313L359.796 115.773ZM350.855 106.391L352.356 107.921C353.003 107.051 353.344 105.969 353.325 104.86C353.332 103.814 353.06 102.788 352.542 101.899C352.001 100.992 351.263 100.239 350.386 99.703C349.435 99.1294 348.354 98.8418 347.261 98.8714C346.177 98.8714 345.108 99.133 344.135 99.6365C343.263 100.13 342.512 100.837 341.946 101.699C341.543 102.564 341.38 103.534 341.478 104.494C341.474 105.34 341.634 106.179 341.946 106.956C342.228 107.725 342.666 108.417 343.228 108.986C343.782 109.558 344.443 110 345.167 110.283C345.895 110.62 346.687 110.779 347.48 110.749C348.042 110.761 348.601 110.671 349.137 110.483L345.76 107.156L350.855 106.391Z" fill="#454545"/>
<path d="M377.947 93.7143H383.877V106.218C383.946 107.241 383.946 108.268 383.877 109.291C383.776 110.17 383.548 111.027 383.2 111.835C382.844 112.697 382.311 113.468 381.64 114.095C380.994 114.684 380.263 115.161 379.471 115.508C378.629 115.903 377.74 116.176 376.827 116.32C375.912 116.508 374.98 116.591 374.047 116.568C372.626 116.581 371.209 116.379 369.843 115.967C368.583 115.646 367.417 115.002 366.454 114.095C365.767 113.476 365.222 112.703 364.861 111.835C364.518 111.026 364.289 110.169 364.184 109.291V93.7143H370.116V105.441C370.101 106.473 370.193 107.503 370.387 108.514C370.508 109.336 370.906 110.086 371.506 110.633C371.872 110.95 372.292 111.188 372.747 111.333C373.2 111.479 373.678 111.529 374.15 111.481C375.112 111.561 376.069 111.258 376.827 110.633C377.408 110.071 377.802 109.327 377.947 108.514C378.128 107.501 378.207 106.471 378.182 105.441L377.947 93.7143Z" fill="#454545"/>
<path d="M403.067 112.617H395.567L394.105 116.571H388.316L396.377 93.7143H402.35L410.255 116.571H404.436L403.067 112.617ZM401.605 108.045L399.363 100.789L397.092 108.045H401.605Z" fill="#454545"/>
</svg>
