<svg width="80" height="80" viewBox="0 0 80 80" fill="none" xmlns="http://www.w3.org/2000/svg">
<g clip-path="url(#clip0_501_14)">
<path d="M27.5 72.5H52.5" stroke="black" stroke-width="3" stroke-linecap="round" stroke-linejoin="round"/>
<path d="M24.5938 52.1875C21.6175 49.8733 19.207 46.912 17.5448 43.5281C15.8826 40.1442 15.0124 36.4263 15 32.6562C14.9375 19.0937 25.8438 7.8125 39.4063 7.5C44.6552 7.37557 49.8101 8.90688 54.1399 11.8768C58.4696 14.8466 61.7545 19.1043 63.5285 24.046C65.3025 28.9876 65.4756 34.3624 64.0234 39.408C62.5711 44.4536 59.5671 48.9138 55.4375 52.1562C54.5253 52.8614 53.7864 53.7658 53.2772 54.8003C52.7681 55.8348 52.5023 56.972 52.5 58.125V60C52.5 60.663 52.2366 61.2989 51.7678 61.7678C51.299 62.2366 50.6631 62.5 50 62.5H30C29.337 62.5 28.7011 62.2366 28.2323 61.7678C27.7634 61.2989 27.5 60.663 27.5 60V58.125C27.4922 56.9807 27.2269 55.8528 26.7238 54.8249C26.2207 53.7971 25.4927 52.8957 24.5938 52.1875Z" stroke="black" stroke-width="3" stroke-linecap="round" stroke-linejoin="round"/>
<path d="M42.5312 17.75C45.5868 18.268 48.4062 19.7216 50.6005 21.9102C52.7947 24.0988 54.2555 26.9145 54.7812 29.9688" stroke="black" stroke-width="3" stroke-linecap="round" stroke-linejoin="round"/>
</g>
<defs>
<clipPath id="clip0_501_14">
<rect width="80" height="80" fill="white"/>
</clipPath>
</defs>
</svg>
