<svg width="80" height="80" viewBox="0 0 80 80" fill="none" xmlns="http://www.w3.org/2000/svg">
<path d="M5.90328 41.8004C6.63566 41.8004 7.2291 41.2068 7.2291 40.4746V39.0142C7.2291 36.1174 9.58588 33.7606 12.4827 33.7606C14.9235 33.7606 17.0801 35.4888 17.611 37.8699C17.7701 38.5845 18.4786 39.0351 19.1935 38.8754C19.9082 38.7162 20.3585 38.0076 20.199 37.2929C19.4002 33.7097 16.1551 31.1089 12.4827 31.1089C8.12377 31.1089 4.57745 34.6553 4.57745 39.0142V40.4746C4.57745 41.2068 5.17089 41.8004 5.90328 41.8004Z" fill="black"/>
<path d="M20.3878 51.0293V43.0175C20.3878 42.2853 19.7944 41.6917 19.062 41.6917C18.3296 41.6917 17.7362 42.2853 17.7362 43.0175V51.0293C17.7362 53.9262 15.3795 56.283 12.4827 56.283C9.5857 56.283 7.22892 53.9262 7.22892 51.0293V44.6705C7.22892 43.9383 6.63548 43.3447 5.90309 43.3447C5.17071 43.3447 4.57727 43.9383 4.57727 44.6705V51.0293C4.57727 55.3883 8.12376 58.9346 12.4827 58.9346C16.8417 58.9346 20.3878 55.3883 20.3878 51.0293Z" fill="black"/>
<path d="M14.4847 48.1578C15.2171 48.1578 15.8105 47.5642 15.8105 46.832V39.0142C15.8105 37.1793 14.3177 35.6864 12.4827 35.6864C10.6478 35.6864 9.15491 37.1793 9.15491 39.0142V51.0294C9.15491 52.8643 10.6478 54.3572 12.4829 54.3572C14.3178 54.3572 15.8105 52.8643 15.8105 51.0294C15.8105 50.2971 15.2171 49.7035 14.4847 49.7035C13.7523 49.7035 13.1589 50.2971 13.1589 51.0294C13.1589 51.4022 12.8555 51.7055 12.4829 51.7055C12.1101 51.7055 11.8066 51.4022 11.8066 51.0294V39.0142C11.8066 38.6414 12.1099 38.338 12.4827 38.338C12.8555 38.338 13.1589 38.6414 13.1589 39.0142V46.832C13.1589 47.5642 13.7523 48.1578 14.4847 48.1578Z" fill="black"/>
<path d="M67.5185 26.5322H44.7271L41.0295 17.3197C40.7719 16.6778 40.0632 16.3419 39.4042 16.5479L31.7395 18.9402C31.0794 19.1463 30.6884 19.8251 30.8417 20.4995L32.212 26.5322C32.212 26.5322 12.4924 26.5315 12.4827 26.5315C5.59975 26.5315 0 32.1312 0 39.0142V51.0293C0 57.9067 5.59055 63.5025 12.4657 63.5115L67.5185 63.5126C74.4008 63.5126 79.9998 57.9127 79.9998 51.0293V39.0137C80 32.1314 74.4008 26.5322 67.5185 26.5322ZM2.65165 51.0293V39.0142C2.65165 33.5934 7.06169 29.1831 12.4825 29.1831C17.9034 29.1831 22.3136 33.5934 22.3136 39.0142V51.0293C22.3136 56.4502 17.9034 60.8604 12.4825 60.8604C7.06169 60.8604 2.65165 56.4502 2.65165 51.0293ZM77.3484 51.0293C77.3484 56.4505 72.9388 60.8609 67.5187 60.8609H20.1603C23.0821 58.5742 24.9654 55.0187 24.9654 51.0293V39.0142C24.9654 35.0256 23.0828 31.4706 20.1619 29.1838H32.8143L33.3522 31.5519C33.4919 32.1671 34.0387 32.5843 34.6439 32.5843C34.7412 32.5843 34.84 32.5735 34.9388 32.5511C35.6528 32.3888 36.1002 31.6785 35.9379 30.9645L33.6985 21.1066L39.025 19.4442L43.9134 31.6234C44.1862 32.3031 44.9585 32.6326 45.6377 32.36C46.3172 32.0872 46.6469 31.3152 46.3741 30.6357L45.7915 29.1838H67.5187C72.9388 29.1838 77.3484 33.5934 77.3484 39.0135V51.0293Z" fill="black"/>
<path d="M68.0902 56.7129H65.5156C64.7833 56.7129 64.1898 57.3065 64.1898 58.0387C64.1898 58.7709 64.7833 59.3645 65.5156 59.3645H68.0902C68.8226 59.3645 69.416 58.7709 69.416 58.0387C69.416 57.3065 68.8224 56.7129 68.0902 56.7129Z" fill="black"/>
<path d="M58.9359 56.7129H41.4856C40.7532 56.7129 40.1597 57.3065 40.1597 58.0387C40.1597 58.7709 40.7532 59.3645 41.4856 59.3645H58.9359C59.6682 59.3645 60.2617 58.7709 60.2617 58.0387C60.2617 57.3065 59.6681 56.7129 58.9359 56.7129Z" fill="black"/>
<path d="M34.6197 56.7129H26.6095C25.8771 56.7129 25.2836 57.3065 25.2836 58.0387C25.2836 58.7709 25.8771 59.3645 26.6095 59.3645H34.6197C35.3521 59.3645 35.9455 58.7709 35.9455 58.0387C35.9455 57.3065 35.3519 56.7129 34.6197 56.7129Z" fill="black"/>
<path d="M71.8091 50.2047H64.9434C64.211 50.2047 63.6176 50.7983 63.6176 51.5305C63.6176 52.2627 64.211 52.8564 64.9434 52.8564H71.8091C72.5414 52.8564 73.1349 52.2627 73.1349 51.5305C73.1349 50.7983 72.5413 50.2047 71.8091 50.2047Z" fill="black"/>
<path d="M30.433 51.5305C30.433 52.2627 31.0264 52.8564 31.7588 52.8564H54.6448C55.3772 52.8564 55.9706 52.2627 55.9706 51.5305C55.9706 50.7983 55.3772 50.2047 54.6448 50.2047H31.7588C31.0266 50.2047 30.433 50.7983 30.433 51.5305Z" fill="black"/>
<path d="M71.8091 37.1883H66.9458C66.2134 37.1883 65.6199 37.7819 65.6199 38.5141C65.6199 39.2463 66.2134 39.8399 66.9458 39.8399H71.8091C72.5414 39.8399 73.1349 39.2463 73.1349 38.5141C73.1349 37.7819 72.5413 37.1883 71.8091 37.1883Z" fill="black"/>
<path d="M30.3285 39.8399H59.2219C59.9543 39.8399 60.5477 39.2463 60.5477 38.5141C60.5477 37.7819 59.9543 37.1883 59.2219 37.1883H30.3285C29.5961 37.1883 29.0027 37.7819 29.0027 38.5141C29.0027 39.2463 29.5963 39.8399 30.3285 39.8399Z" fill="black"/>
<path d="M71.8091 43.6965H42.3436C41.6112 43.6965 41.0178 44.2901 41.0178 45.0223C41.0178 45.7545 41.6112 46.3481 42.3436 46.3481H71.8091C72.5414 46.3481 73.1349 45.7545 73.1349 45.0223C73.1349 44.2901 72.5413 43.6965 71.8091 43.6965Z" fill="black"/>
<path d="M30.3285 46.3481H36.3359C37.0683 46.3481 37.6617 45.7545 37.6617 45.0223C37.6617 44.2901 37.0683 43.6965 36.3359 43.6965H30.3285C29.5961 43.6965 29.0027 44.2901 29.0027 45.0223C29.0027 45.7545 29.5963 46.3481 30.3285 46.3481Z" fill="black"/>
<path d="M50.0677 33.3319H68.0902C68.8226 33.3319 69.416 32.7383 69.416 32.0061C69.416 31.2739 68.8226 30.6802 68.0902 30.6802H50.0677C49.3353 30.6802 48.7419 31.2739 48.7419 32.0061C48.7419 32.7383 49.3353 33.3319 50.0677 33.3319Z" fill="black"/>
</svg>
