<svg width="60" height="60" viewBox="0 0 60 60" fill="none" xmlns="http://www.w3.org/2000/svg">
<path d="M17.8154 16.0518H45.6952" stroke="#EB7149" stroke-width="2" stroke-linecap="square" stroke-linejoin="round"/>
<path d="M10.8286 24.8564H50.0092" stroke="#EB7149" stroke-width="2" stroke-linecap="square" stroke-linejoin="round"/>
<path d="M35.3398 10.3174C42.1921 25.8054 39.5821 38.4192 35.3398 50.5373" stroke="#EB7149" stroke-width="2" stroke-linecap="square" stroke-linejoin="round"/>
<path d="M26.0515 9.04834C19.1992 24.5363 21.8092 37.1502 26.0515 49.2682" stroke="#EB7149" stroke-width="2" stroke-linecap="square" stroke-linejoin="round"/>
<path d="M10.8071 34.7812H50.1956" stroke="#EB7149" stroke-width="2" stroke-linecap="square" stroke-linejoin="round"/>
<path d="M14.8062 42.8652H45.9339" stroke="#EB7149" stroke-width="2" stroke-linecap="square" stroke-linejoin="round"/>
<path d="M14.9859 12.3022L26.593 26.6171C26.73 26.6742 27.2854 27.1686 27.6846 27.1747C36.3051 27.3059 42.792 31.0236 47.8064 34.1276C49.5023 35.5152 50.0231 36.7095 50.4457 37.8876L47.2946 43.2138C45.5541 40.997 46.8813 40.3834 41.8319 36.4373C37.8347 34.4647 34.2479 33.9102 30.6734 33.398C28.3388 33.7296 27.8321 34.5253 26.7795 36.3006C26.385 36.966 23.795 40.092 23.4764 40.8094C22.1568 43.7813 23.1001 46.054 23.1683 49.1814L16.5087 45.7063C16.4254 42.924 15.4032 41.1828 19.0743 37.5769C20.3085 36.4917 21.159 35.3382 21.471 31.1081C20.7276 27.079 13.474 19.6681 8.53076 13.2698L14.9859 12.3022Z" fill="#8AC9AF" stroke="#6FB581" stroke-width="2" stroke-linecap="square" stroke-linejoin="round"/>
<path d="M30.4692 6.94043C25.5375 6.96119 20.7417 8.53838 16.7827 11.4415L18.8569 14.0637C22.2278 11.6321 26.2943 10.3209 30.4692 10.3194C35.6925 10.3195 40.7018 12.3678 44.3952 16.0138C48.0886 19.6599 50.1635 24.605 50.1636 29.7612C50.1635 34.9175 48.0886 39.8626 44.3952 43.5086C40.7018 47.1547 35.6925 49.203 30.4692 49.2031C25.246 49.203 20.2367 47.1547 16.5433 43.5086C12.8499 39.8626 10.775 34.9175 10.7749 29.7612C10.7957 27.1645 11.3433 24.5982 12.3853 22.2138L10.0298 19.2165C8.28981 22.4672 7.37117 26.0847 7.35205 29.7612C7.35211 35.8137 9.78768 41.6182 14.123 45.8979C18.4583 50.1777 24.3382 52.582 30.4692 52.5821C36.6003 52.582 42.4802 50.1777 46.8155 45.8979C51.1508 41.6182 53.5864 35.8137 53.5864 29.7612C53.5864 23.7088 51.1508 17.9043 46.8155 13.6246C42.4802 9.34484 36.6003 6.94049 30.4692 6.94043Z" fill="#6FB581"/>
</svg>
