<svg width="90" height="90" viewBox="0 0 90 90" fill="none" xmlns="http://www.w3.org/2000/svg">
<path d="M26.7236 24.3909H68.5433" stroke="#EB7149" stroke-width="3.5" stroke-linecap="square" stroke-linejoin="round"/>
<path d="M16.2432 37.7695H75.014" stroke="#EB7149" stroke-width="3.5" stroke-linecap="square" stroke-linejoin="round"/>
<path d="M53.0098 15.6771C63.2881 39.2108 59.3732 58.3773 53.0098 76.7905" stroke="#EB7149" stroke-width="3.5" stroke-linecap="square" stroke-linejoin="round"/>
<path d="M39.0772 13.7494C28.7988 37.2831 32.7138 56.4496 39.0772 74.8628" stroke="#EB7149" stroke-width="3.5" stroke-linecap="square" stroke-linejoin="round"/>
<path d="M16.2109 52.8495H75.2937" stroke="#EB7149" stroke-width="3.5" stroke-linecap="square" stroke-linejoin="round"/>
<path d="M22.2095 65.1332H68.9011" stroke="#EB7149" stroke-width="3.5" stroke-linecap="square" stroke-linejoin="round"/>
<path d="M22.4794 18.693L39.89 40.4441C40.0955 40.5309 40.9286 41.2822 41.5273 41.2914C54.4581 41.4908 64.1885 47.1397 71.7101 51.8563C74.254 53.9647 75.0352 55.7794 75.669 57.5695L70.9424 65.6626C68.3316 62.2941 70.3224 61.3618 62.7483 55.3657C56.7525 52.3685 51.3723 51.5259 46.0105 50.7477C42.5086 51.2515 41.7486 52.4606 40.1697 55.1581C39.5779 56.1691 35.693 60.919 35.2151 62.0091C33.2356 66.5248 34.6507 69.9781 34.753 74.7302L24.7636 69.4498C24.6386 65.2221 23.1054 62.5765 28.612 57.0973C30.4633 55.4485 31.739 53.6957 32.2069 47.2682C31.0919 41.146 20.2114 29.8852 12.7966 20.1632L22.4794 18.693Z" fill="#8AC9AF" stroke="#6FB581" stroke-width="3.5" stroke-linecap="square" stroke-linejoin="round"/>
<path d="M45.7041 10.5462C38.3065 10.5777 31.1128 12.9742 25.1743 17.3855L28.2856 21.3699C33.342 17.6751 39.4417 15.6828 45.7041 15.6805C53.539 15.6805 61.0529 18.793 66.593 24.3331C72.1331 29.8731 75.2455 37.3871 75.2456 45.222C75.2455 53.0568 72.1331 60.5708 66.593 66.1109C61.0529 71.6509 53.539 74.7634 45.7041 74.7635C37.8692 74.7634 30.3553 71.6509 24.8152 66.1109C19.2751 60.5708 16.1627 53.0568 16.1626 45.222C16.1938 41.2762 17.0151 37.3768 18.5781 33.7537L15.0449 29.1995C12.435 34.1388 11.057 39.6356 11.0283 45.222C11.0284 54.4185 14.6818 63.2384 21.1847 69.7413C27.6877 76.2443 36.5075 79.8976 45.7041 79.8977C54.9007 79.8976 63.7205 76.2443 70.2235 69.7413C76.7264 63.2384 80.3798 54.4185 80.3799 45.222C80.3798 36.0254 76.7264 27.2055 70.2235 20.7026C63.7205 14.1996 54.9007 10.5463 45.7041 10.5462Z" fill="#6FB581"/>
</svg>
