<svg width="206" height="207" viewBox="0 0 206 207" fill="none" xmlns="http://www.w3.org/2000/svg">
<path d="M142.867 114.535C142.62 114.082 146.07 118.48 145.686 132.334C145.197 150.029 155.643 150.582 155.643 150.582C157.568 150.76 159.511 150.56 161.347 149.995C163.184 149.43 164.873 148.514 166.306 147.304L146.687 113.288L142.867 114.535Z" fill="#F04912"/>
<path d="M171.13 102.541C171.13 102.541 174.667 108.119 184.763 118.298C189.276 122.849 191.296 126.643 192.015 129.654C192.476 131.737 192.192 133.904 191.208 135.823C190.224 137.743 188.592 139.31 186.563 140.286C184.045 141.569 181.295 142.412 178.451 142.773L165.487 106.195L171.13 102.541Z" fill="#F04912"/>
<path d="M80.5254 23.0733C80.5254 23.0733 88.0873 26.6205 102.697 17.843C117.308 9.06558 130.705 10.7966 130.705 10.7966C130.705 10.7966 136.851 11.3094 140.421 14.6554C140.421 14.6554 141.99 18.4604 138.373 22.2685C138.373 22.2685 146.543 37.2149 129.52 48.3212L80.5254 23.0733Z" fill="#F04912"/>
<path d="M62.0519 72.5662C62.0519 72.5662 69.3334 74.6002 73.0445 88.723C76.7556 102.846 86.6384 109.415 86.6384 109.415C86.6384 109.415 90.9857 112.614 95.5285 112.486C95.5285 112.486 99.0709 110.906 99.2374 106.344C99.2374 106.344 114.47 101.297 110.727 84.2652L62.0519 72.5662Z" fill="#F04912"/>
<path d="M175.119 147.523L166.848 156.495C166.848 156.495 158.834 189.74 187.834 202.928C187.834 202.928 200.101 192.341 187.086 176.264C189.344 175.889 191.398 174.812 192.914 173.209C194.376 171.678 195.156 169.684 195.092 167.636C195.029 165.588 194.127 163.64 192.572 162.19C186.49 156.441 182.609 148.987 181.527 140.979L175.119 147.523Z" fill="#F04912"/>
<path d="M68.8587 78.0488L75.9286 18.9217C75.9286 18.9217 123.428 22.1838 154.094 65.6414L169.938 96.7746C169.938 96.7746 173.529 112.893 174.96 119.495L180.18 134.778C180.665 136.874 181.125 138.972 181.526 140.977C181.823 142.452 181.788 143.969 181.424 145.431C181.06 146.892 180.374 148.268 179.41 149.47C176.363 153.245 171.856 155.764 166.847 156.494C166.847 156.494 151.657 91.5128 68.8587 78.0488Z" fill="#EB7149"/>
<path d="M82.5059 19.8562C80.3336 19.4323 78.1378 19.1203 75.9286 18.9217L68.8587 78.0488C70.9971 78.3963 73.0786 78.786 75.1278 79.2009C76.4235 77.963 77.6503 76.6641 78.8034 75.3094L79.5262 74.4607L79.534 74.43C85.0923 67.6001 92.8717 54.4148 89.3208 36.9843L89.3284 36.9551L89.0856 35.8671C87.7395 30.2606 85.523 24.867 82.5059 19.8562Z" fill="#F04912"/>
<path d="M124.843 49.5761C122.236 48.4032 119.946 46.6979 118.144 44.5871C115.365 41.3529 111.975 38.6188 108.14 36.5194C95.1929 29.4259 80.3393 38.866 80.3393 38.866L72.108 50.8619L68.8575 78.0471C78.4452 79.5717 87.8409 82.0037 96.8983 85.3054L104.157 75.2616C115.055 75.2341 122.251 72.8746 126.933 70.1482C128.741 69.111 130.231 67.6555 131.257 65.9233C132.284 64.1911 132.811 62.2412 132.789 60.2629C132.766 58.2846 132.195 56.3454 131.13 54.6337C130.065 52.922 128.543 51.496 126.711 50.4944C126.067 50.1431 125.437 49.8383 124.843 49.5761Z" fill="#1D484E"/>
<path d="M80.3387 38.8654L72.1074 50.8613L68.8569 78.0465C70.9953 78.394 73.0768 78.7837 75.126 79.1986C76.4215 77.9606 77.6483 76.6617 78.8016 75.3071L79.5244 74.4584L79.5322 74.4277C85.0905 67.5977 92.8699 54.4125 89.319 36.982L89.3266 36.9528L89.0838 35.8648C89.0313 35.6353 88.9629 35.4049 88.9065 35.1752C85.8877 36.0463 83.0066 37.2873 80.3387 38.8654Z" fill="#1D484E"/>
<path d="M114.501 93.3205C131.792 83.6017 112.765 64.5489 112.765 64.5489C112.765 64.5489 101.544 61.6768 94.007 64.1862C86.4696 66.6956 89.9864 73.9746 89.9864 73.9746C91.3555 76.6334 92.3845 80.6923 93.0582 83.9623C100.508 86.4419 107.688 89.5754 114.501 93.3205Z" fill="white"/>
<path d="M14.7145 34.6922C13.4762 35.0717 12.3513 35.7174 11.4307 36.577C10.5101 37.4366 9.81967 38.486 9.41533 39.6403C7.46876 45.3354 7.82869 51.4972 10.4271 56.962C10.9513 58.1205 11.7698 59.1429 12.8122 59.9414C13.8547 60.7399 15.0899 61.2905 16.4114 61.5458L16.8931 61.639C18.2432 61.8783 19.4719 62.523 20.3913 63.4744C22.0293 65.2344 26.1128 67.275 32.8084 68.6796L33.5652 72.9523C34.1461 74.6526 35.227 76.1672 36.6851 77.3244C38.1433 78.4815 39.9204 79.235 41.815 79.4992C42.1693 79.5436 42.6787 79.6006 43.2476 79.6517C44.2145 79.7349 45.1875 79.5734 46.064 79.1842C46.9405 78.795 47.6878 78.1925 48.2271 77.4405L49.7015 75.3884C49.7015 75.3884 55.9585 78.6196 68.8568 78.0437C71.0232 76.3215 72.994 74.3967 74.7383 72.2996L84.0111 36.8686C82.4558 30.4928 79.7201 24.418 75.9267 18.9166C68.9597 18.8814 61.9956 19.1863 55.0629 19.83L54.2679 17.3668C54.1138 16.8499 53.8515 16.3665 53.4962 15.9444C52.8842 15.2454 52.0987 14.6959 51.2076 14.3431C50.3164 13.9904 49.3465 13.8452 48.3815 13.9199C44.9259 14.2221 41.5365 14.9949 38.3218 16.2137C37.3405 16.576 36.478 17.171 35.8198 17.9396C35.1616 18.7082 34.7306 19.6237 34.5695 20.5953L33.9895 23.7443C33.9895 23.7443 23.7222 25.8904 17.5879 32.8321C16.838 33.6925 15.8417 34.3375 14.7145 34.6922Z" fill="#EB7149"/>
<path d="M107.457 56.1672C107.293 56.1266 107.12 56.132 106.959 56.1826C106.799 56.2333 106.658 56.327 106.554 56.452C106.45 56.577 106.388 56.7278 106.376 56.8854C106.364 57.043 106.402 57.2004 106.486 57.3379C109.156 61.9542 111.145 66.8852 112.399 71.9971C113.326 74.4791 114.903 76.7062 116.988 78.4762C119.074 80.2462 121.6 81.5031 124.339 82.1327C124.339 82.1327 135.367 85.2901 142.887 91.4835C143.032 91.6041 143.218 91.6731 143.412 91.6783C143.607 91.6835 143.797 91.6245 143.949 91.5118C144.101 91.3991 144.205 91.24 144.243 91.0626C144.281 90.8851 144.251 90.7008 144.157 90.5423C138.394 80.7477 124.708 60.5969 107.457 56.1672Z" fill="#F04912"/>
<path d="M99.1501 24.3525C98.2506 25.1613 97.4627 26.0712 96.8045 27.0612C92.0325 34.3113 98.7958 43.3383 107.826 42.0879C110.666 41.656 113.411 40.7913 115.949 39.5284C118.701 38.2321 121.68 37.4043 124.745 37.0839C116.835 31.8349 108.233 27.5559 99.1501 24.3525Z" fill="white"/>
<path d="M157.126 104.98C151.595 113.148 149.459 118.62 148.755 122.138C150.838 124.767 152.696 127.36 154.355 129.874C157.682 130.95 161.15 131.6 164.665 131.806C167.294 131.972 169.874 132.552 172.295 133.522C174.79 134.485 177.485 134.914 180.182 134.778C177.92 124.986 175.126 115.259 175.126 115.259C173.783 109.008 172.051 102.835 169.937 96.772C167.222 89.0319 162.967 82.4043 159.43 76.1225C161.675 84.0333 163.883 95.0015 157.126 104.98Z" fill="#1D484E"/>
<path d="M154.085 65.6473C150.201 68.3008 145.917 72.906 148.131 79.5997C148.131 79.5997 152.709 97.4657 169.926 96.7784C166.157 85.7908 160.83 75.3212 154.085 65.6473Z" fill="white"/>
<path d="M161.641 123.503C159.909 123.326 158.157 123.562 156.551 124.189C154.944 124.816 153.535 125.814 152.457 127.089C155.678 131.655 158.529 136.438 160.986 141.398C163.613 140.506 165.763 138.696 166.982 136.353C168.2 134.01 168.392 131.317 167.516 128.844C166.618 126.286 164.905 123.859 161.641 123.503Z" fill="white"/>
<path d="M84.0071 36.8749L75.4493 37.9075C73.3479 38.1599 71.4336 39.1619 70.1096 40.7026L69.9814 40.8517C69.1179 41.8437 67.9171 42.5318 66.5772 42.8024C65.2372 43.0731 63.8383 42.9101 62.6112 42.3403C58.8202 40.6232 53.0083 39.2398 48.0077 43.3134C39.7656 50.0246 54.6117 61.9466 54.6117 61.9466C54.6117 61.9466 64.2123 72.1178 74.7411 72.3074C80.4597 65.5932 87.7697 53.2804 84.0071 36.8749Z" fill="#1D484E"/>
<path d="M49.5742 18.3342C49.2088 16.9937 46.5518 16.4652 43.6397 17.1539C40.7276 17.8425 38.6631 19.4875 39.0285 20.828C39.3938 22.1685 42.0508 22.6969 44.9629 22.0083C47.875 21.3196 49.9396 19.6747 49.5742 18.3342Z" fill="#1D484E"/>
<path d="M33.571 72.9526C34.1519 74.6529 35.2328 76.1675 36.6909 77.3247C38.1491 78.4818 39.9262 79.2353 41.8207 79.4995C42.1751 79.5439 42.6845 79.6009 43.2534 79.652C44.2203 79.7352 45.1933 79.5737 46.0698 79.1845C46.9463 78.7953 47.6936 78.1928 48.2329 77.4408L49.7073 75.3887L32.8159 68.6736L33.571 72.9526Z" fill="#F04912"/>
<path d="M16.9984 33.4159C16.3466 33.9942 15.5667 34.4325 14.7134 34.6998C13.4752 35.0793 12.3502 35.7249 11.4296 36.5846C10.509 37.4442 9.8186 38.4936 9.41426 39.6479C7.47001 45.3407 7.83035 51.4996 10.4273 56.9619C10.9514 58.1204 11.7699 59.1429 12.8124 59.9414C13.8548 60.7399 15.09 61.2904 16.4116 61.5457L16.8932 61.6389C16.8932 61.6389 9.48333 46.9617 16.9984 33.4159Z" fill="#F04912"/>
</svg>
