<svg width="25" height="26" viewBox="0 0 25 26" fill="none" xmlns="http://www.w3.org/2000/svg">
<path d="M11.58 16.84V13.56C12.6733 13.5067 13.5267 13.24 14.14 12.76C14.7667 12.28 15.08 11.62 15.08 10.78V10.5C15.08 9.82 14.8667 9.28 14.44 8.88C14.0133 8.46667 13.44 8.26 12.72 8.26C11.9467 8.26 11.3267 8.48 10.86 8.92C10.4067 9.36 10.1 9.92 9.94 10.6L8.46 10.04C8.58 9.61333 8.75333 9.20667 8.98 8.82C9.22 8.42 9.51333 8.07333 9.86 7.78C10.22 7.47333 10.64 7.23333 11.12 7.06C11.6 6.88667 12.1533 6.8 12.78 6.8C14.02 6.8 15 7.14 15.72 7.82C16.44 8.5 16.8 9.42 16.8 10.58C16.8 11.22 16.6867 11.78 16.46 12.26C16.2467 12.7267 15.9667 13.1267 15.62 13.46C15.2733 13.7933 14.88 14.06 14.44 14.26C14 14.46 13.56 14.6 13.12 14.68V16.84H11.58ZM12.36 21.24C11.9333 21.24 11.62 21.1333 11.42 20.92C11.2333 20.7067 11.14 20.4267 11.14 20.08V19.82C11.14 19.4733 11.2333 19.1933 11.42 18.98C11.62 18.7667 11.9333 18.66 12.36 18.66C12.7867 18.66 13.0933 18.7667 13.28 18.98C13.48 19.1933 13.58 19.4733 13.58 19.82V20.08C13.58 20.4267 13.48 20.7067 13.28 20.92C13.0933 21.1333 12.7867 21.24 12.36 21.24Z" fill="black"/>
<circle cx="12.5" cy="12.5" r="12" stroke="black"/>
</svg>
