<svg width="80" height="60" viewBox="0 0 80 60" fill="none" xmlns="http://www.w3.org/2000/svg">
<g clip-path="url(#clip0_514_28)">
<path fill-rule="evenodd" clip-rule="evenodd" d="M21.2475 37.9317C23.0001 38.0908 30.297 36.7662 30.297 39.5765C30.297 43.092 31.9494 42.6673 27.4324 46.2566C24.9552 48.2182 26.8087 48.3589 22.0574 47.5812C20.1192 47.2623 17.1029 42.5622 19.3269 39.982C20.2703 38.8691 20.2364 37.8443 21.2475 37.9317ZM6.38343 24.0292C10.3405 23.7841 16.739 23.2939 16.739 26.4291C16.739 31.4481 19.0854 30.8487 12.6524 35.9305C10.6706 37.4988 10.6361 38.2485 9.78385 38.4076L3.63927 34.5479L7.03708 38.1515L4.99344 37.8149C2.22715 37.3623 -2.04633 30.665 1.11841 26.9924C4.13016 23.4905 1.4218 24.3351 6.38343 24.0292ZM22.769 2.78568C24.2801 1.00776 25.9298 0.213705 27.6323 0L30.1623 5.5857L29.8706 0.0163864C33.9663 0.523681 38.1369 3.30253 41.2275 3.00553L45.9248 9.24054L45.4443 11.1222L34.3081 13.8799L44.8264 13.5426L43.7372 17.8079L35.092 28.7642C30.1369 28.4925 26.8914 27.482 24.1193 24.3337L29.1388 19.0109L22.978 22.8801C22.1798 21.7502 21.4096 20.4113 20.6322 18.8252C17.4812 12.3601 17.6791 7.95216 22.769 2.78568ZM79.3098 16.5106C80.5168 22.5265 80.0142 24.8451 78.7649 26.3827L69.4028 20.5027L76.7095 28.2514C75.4556 29.2838 74.037 30.5947 72.8189 33.2971C72.4452 34.1417 60.9685 35.8185 58.0616 32.7707L53.8734 26.0488L60.5089 19.0116L52.5882 23.9855L50.4756 20.5942L59.8136 14.3435C71.645 17.2883 77.0409 5.18628 79.3098 16.5106ZM54.0375 36.1783C59.3604 39.4979 61.3754 46.1494 59.9789 52.2506C59.6221 53.8128 59.0369 55.1251 58.281 56.2011L53.5993 53.2604L57.391 57.2819C52.8656 61.9732 44.2809 60.3899 39.4078 54.0859L38.87 53.7281L45.8134 46.3652L36.5484 52.1837L34.1447 50.584L32.9169 37.4831L39.5914 37.9242L43.6227 33.4801L54.0375 36.1783Z" fill="black"/>
</g>
<defs>
<clipPath id="clip0_514_28">
<rect width="80" height="60" fill="white"/>
</clipPath>
</defs>
</svg>
