<svg width="150" height="150" viewBox="0 0 150 150" fill="none" xmlns="http://www.w3.org/2000/svg">
<path d="M144.353 104.479L102.094 18.6073C101.226 16.8444 99.8269 15.3983 98.0935 14.4732C96.3601 13.5481 94.38 13.1905 92.4325 13.451L53.3856 18.7713C52.8613 18.8427 52.3765 19.0895 52.0102 19.4715C51.644 19.8534 51.4177 20.3481 51.3684 20.875C51.319 21.4019 51.4494 21.93 51.7384 22.3734C52.0273 22.8167 52.4578 23.1492 52.9598 23.3168L90.356 35.7891C91.2874 36.0957 92.0978 36.6896 92.6708 37.4854C93.2438 38.2812 93.5499 39.2381 93.5453 40.2188V135.844C93.4857 136.266 93.5423 136.696 93.7089 137.088C93.8756 137.48 94.146 137.82 94.4911 138.07C94.8362 138.32 95.2429 138.471 95.6675 138.507C96.0921 138.543 96.5185 138.463 96.9009 138.274L140.073 117.041C142.304 115.94 144.007 114 144.809 111.645C145.612 109.29 145.447 106.713 144.353 104.479Z" fill="#EB7149"/>
<path d="M91.8265 31.3399L54.4437 18.8712C53.9623 18.7111 53.442 18.7111 52.9606 18.8712L15.5907 31.3359C13.7191 31.9481 12.0896 33.1375 10.9362 34.7334C9.78269 36.3293 9.16454 38.2496 9.17045 40.2188V135.938C9.17312 138.423 10.1617 140.806 11.9193 142.564C13.6768 144.321 16.0599 145.31 18.5455 145.313H88.858C91.2635 145.331 93.5824 144.415 95.3258 142.758C97.0692 141.1 98.1008 138.83 98.2032 136.427C98.2251 136.265 98.2351 136.101 98.233 135.938V40.2188C98.2396 38.2519 97.6233 36.3334 96.4725 34.7384C95.3216 33.1433 93.6952 31.9537 91.8265 31.3399Z" fill="#8AC9AF"/>
<path d="M39.1093 92.6827C41.6948 92.6802 44.1996 91.7813 46.1967 90.1393C48.1939 88.4973 49.5601 86.2136 50.0624 83.6773C50.5648 81.1411 50.1722 78.5091 48.9517 76.2297C47.7312 73.9504 45.7582 72.1647 43.3688 71.1769C40.9794 70.189 38.3215 70.0601 35.8477 70.8121C33.3739 71.5641 31.2374 73.1505 29.8021 75.3011C28.3667 77.4516 27.7214 80.0333 27.976 82.6063C28.2305 85.1792 29.3693 87.5844 31.1982 89.412C32.2365 90.4513 33.4698 91.2752 34.8275 91.8365C36.1851 92.3978 37.6402 92.6854 39.1093 92.6827Z" fill="#EEF1D8"/>
<path d="M76.2065 102.773C74.3761 100.943 71.9675 99.8031 69.3912 99.5491C66.8148 99.2951 64.2301 99.9423 62.0774 101.38C59.9247 102.819 58.3373 104.959 57.5857 107.436C56.8341 109.913 56.9648 112.575 57.9554 114.966C58.9461 117.358 60.7355 119.333 63.0187 120.553C65.3019 121.773 67.9376 122.164 70.4767 121.659C73.0158 121.154 75.3011 119.784 76.9434 117.783C78.5856 115.781 79.4831 113.272 79.4828 110.684C79.4814 107.717 78.3031 104.872 76.2065 102.773Z" fill="#EEF1D8"/>
<path d="M76.2066 73.5893C75.7671 73.1498 75.171 72.903 74.5495 72.903C73.9279 72.903 73.3318 73.1498 72.8923 73.5893L31.1982 115.283C30.9743 115.499 30.7958 115.757 30.6729 116.043C30.5501 116.329 30.4855 116.637 30.4828 116.948C30.4801 117.259 30.5394 117.568 30.6572 117.856C30.775 118.144 30.9491 118.406 31.1691 118.626C31.3892 118.846 31.6509 119.02 31.9389 119.138C32.227 119.255 32.5356 119.315 32.8468 119.312C33.158 119.309 33.4655 119.245 33.7515 119.122C34.0374 118.999 34.296 118.82 34.5122 118.597L76.2076 76.9036C76.6469 76.4639 76.8936 75.8678 76.8934 75.2463C76.8932 74.6247 76.6462 74.0287 76.2066 73.5893Z" fill="#EEF1D8"/>
<path d="M53.7017 53.9056C58.8793 53.9056 63.0767 49.7082 63.0767 44.5306C63.0767 39.3529 58.8793 35.1555 53.7017 35.1555C48.524 35.1555 44.3267 39.3529 44.3267 44.5306C44.3267 49.7082 48.524 53.9056 53.7017 53.9056Z" fill="#EEF1D8"/>
<path d="M144.352 104.48L102.092 18.6077C101.225 16.8448 99.8257 15.3987 98.0923 14.4736C96.3589 13.5484 94.3788 13.1909 92.4314 13.4515L53.3845 18.7718C53.3109 18.7821 53.2497 18.8203 53.1785 18.837C53.1072 18.8536 53.0301 18.8489 52.9589 18.8726L33.6396 25.3148L8.49583 5.19984C8.25537 5.00763 7.97941 4.86466 7.6837 4.7791C7.38799 4.69354 7.07832 4.66706 6.77238 4.70118C6.1545 4.77007 5.58929 5.0816 5.2011 5.56723C4.81291 6.05285 4.63354 6.6728 4.70244 7.29068C4.77133 7.90856 5.08286 8.47376 5.56849 8.86195L28.3429 27.0816L15.5887 31.3359C13.7172 31.9481 12.0878 33.1375 10.9343 34.7334C9.78091 36.3293 9.16279 38.2497 9.16872 40.2188V135.938C9.17133 138.423 10.1599 140.806 11.9175 142.564C13.6751 144.321 16.0581 145.31 18.5437 145.312H88.8562C91.0311 145.326 93.1411 144.572 94.816 143.185C96.4909 141.797 97.6237 139.864 98.0156 137.725L140.071 117.041C142.302 115.94 144.005 113.999 144.808 111.645C145.61 109.29 145.446 106.714 144.352 104.48ZM93.5437 135.844C93.5312 135.933 93.524 136.023 93.5219 136.114C93.4931 137.328 92.9874 138.482 92.1143 139.326C91.2411 140.17 90.0707 140.637 88.8562 140.625H18.5437C17.301 140.624 16.1095 140.129 15.2307 139.25C14.352 138.372 13.8576 137.18 13.8562 135.938V40.2188C13.8526 39.236 14.1607 38.2773 14.7362 37.4807C15.3118 36.6841 16.1252 36.0905 17.0594 35.7853L32.7007 30.5679L45.2247 40.587C44.6383 41.8195 44.331 43.1663 44.325 44.5312C44.3083 46.6575 45.0093 48.7272 46.3146 50.4058C47.6198 52.0843 49.4531 53.2736 51.5179 53.7812C53.5827 54.2889 55.7584 54.0853 57.6932 53.2034C59.628 52.3215 61.2088 50.8127 62.18 48.9212C63.1512 47.0296 63.456 44.8658 63.0452 42.7795C62.6344 40.6933 61.5319 38.8066 59.9161 37.4244C58.3002 36.0423 56.2655 35.2456 54.1407 35.163C52.016 35.0805 49.9256 35.717 48.2074 36.9696L37.9973 28.8014L53.7004 23.5636L90.3541 35.7891C91.2856 36.0957 92.096 36.6895 92.6691 37.4854C93.2421 38.2812 93.5483 39.2381 93.5437 40.2188V135.844ZM55.3708 42.6998L52.1538 40.1264C52.6493 39.9447 53.1722 39.8491 53.7 39.8438C54.6783 39.8328 55.636 40.1249 56.4418 40.6798C57.2476 41.2348 57.8619 42.0254 58.2006 42.9434C58.5392 43.8613 58.5855 44.8615 58.3332 45.8068C58.0809 46.7521 57.5423 47.5961 56.7912 48.2232C56.0402 48.8503 55.1136 49.2296 54.1384 49.3092C53.1633 49.3887 52.1874 49.1646 51.3446 48.6676C50.5019 48.1706 49.8336 47.425 49.4313 46.5331C49.0291 45.6413 48.9127 44.6468 49.098 43.6861L52.4435 46.3624C52.9291 46.7506 53.549 46.93 54.1669 46.8611C54.7848 46.7922 55.35 46.4807 55.7382 45.995C56.1264 45.5094 56.3058 44.8895 56.2369 44.2716C56.168 43.6537 55.8565 43.088 55.3708 42.6998ZM138.004 112.834L98.2312 132.394V40.2188C98.2378 38.2519 97.6215 36.3336 96.4706 34.7386C95.3198 33.1437 93.6934 31.9541 91.8248 31.3404L63.9939 22.057L93.0564 18.0973C94.0299 17.9671 95.0196 18.1459 95.8859 18.6085C96.7522 19.0711 97.4513 19.7941 97.8846 20.6754L140.142 106.545C140.691 107.663 140.773 108.952 140.373 110.131C139.972 111.31 139.12 112.282 138.004 112.834Z" fill="#1D484E"/>
<path d="M39.1075 92.6831C41.693 92.6804 44.1976 91.7814 46.1947 90.1393C48.1917 88.4972 49.5577 86.2135 50.0598 83.6772C50.562 81.141 50.1694 78.509 48.9488 76.2298C47.7283 73.9506 45.7552 72.165 43.3659 71.1772C40.9765 70.1894 38.3186 70.0606 35.8449 70.8126C33.3712 71.5646 31.2347 73.151 29.7994 75.3015C28.3641 77.452 27.7187 80.0336 27.9733 82.6065C28.2278 85.1795 29.3664 87.5846 31.1953 89.4122C32.2337 90.4517 33.4672 91.2758 34.8251 91.8371C36.1829 92.3984 37.6383 92.686 39.1075 92.6831ZM34.5105 76.9038C35.5741 75.8394 36.9739 75.1766 38.4714 75.0286C39.9689 74.8806 41.4714 75.2563 42.7228 76.0919C43.9743 76.9275 44.8973 78.1712 45.3346 79.611C45.7718 81.0509 45.6963 82.5978 45.1208 83.9882C44.5454 85.3786 43.5056 86.5264 42.1787 87.2361C40.8517 87.9458 39.3198 88.1734 37.8439 87.8802C36.3679 87.5869 35.0394 86.791 34.0845 85.628C33.1297 84.4649 32.6076 83.0068 32.6074 81.502C32.6057 80.648 32.773 79.802 33.0996 79.0128C33.4262 78.2237 33.9057 77.5069 34.5105 76.9038Z" fill="#1D484E"/>
<path d="M60.3822 102.773C58.8175 104.338 57.7521 106.332 57.3204 108.502C56.8888 110.672 57.1103 112.922 57.9571 114.966C58.8039 117.01 60.2379 118.757 62.0778 119.987C63.9176 121.216 66.0806 121.872 68.2934 121.872C70.5061 121.872 72.6691 121.216 74.509 119.987C76.3488 118.757 77.7828 117.01 78.6296 114.966C79.4764 112.922 79.698 110.672 79.2663 108.502C78.8347 106.332 77.7692 104.338 76.2046 102.773C75.1709 101.725 73.9392 100.893 72.5811 100.325C71.223 99.7568 69.7655 99.4643 68.2934 99.4643C66.8212 99.4643 65.3638 99.7568 64.0057 100.325C62.6475 100.893 61.4159 101.725 60.3822 102.773ZM72.8905 115.283C71.8269 116.347 70.4272 117.01 68.9297 117.158C67.4323 117.306 65.9299 116.93 64.6785 116.094C63.4271 115.259 62.5042 114.015 62.0669 112.576C61.6297 111.136 61.7052 109.589 62.2807 108.199C62.8561 106.808 63.8958 105.66 65.2227 104.951C66.5495 104.241 68.0814 104.013 69.5573 104.307C71.0332 104.6 72.3617 105.396 73.3165 106.559C74.2713 107.722 74.7934 109.18 74.7936 110.685C74.7932 112.409 74.1087 114.062 72.8905 115.283Z" fill="#1D484E"/>
<path d="M76.2048 73.5898C75.9872 73.372 75.7289 73.1993 75.4446 73.0815C75.1603 72.9636 74.8555 72.903 74.5477 72.903C74.24 72.903 73.9352 72.9636 73.6509 73.0815C73.3666 73.1993 73.1082 73.372 72.8907 73.5898L31.1954 115.283C30.9732 115.499 30.7963 115.758 30.6748 116.043C30.5534 116.329 30.4898 116.636 30.4878 116.946C30.4859 117.256 30.5455 117.564 30.6634 117.851C30.7812 118.138 30.9549 118.399 31.1743 118.618C31.3937 118.838 31.6545 119.011 31.9415 119.129C32.2285 119.247 32.5361 119.307 32.8464 119.305C33.1567 119.303 33.4635 119.239 33.749 119.118C34.0345 118.996 34.2931 118.819 34.5097 118.597L76.205 76.9038C76.4227 76.6863 76.5954 76.428 76.7133 76.1436C76.8311 75.8593 76.8917 75.5545 76.8917 75.2467C76.8917 74.939 76.831 74.6342 76.7131 74.3499C76.5953 74.0656 76.4225 73.8073 76.2048 73.5898Z" fill="#1D484E"/>
</svg>
