<svg width="120" height="120" viewBox="0 0 120 120" fill="none" xmlns="http://www.w3.org/2000/svg">
<path d="M37.5 67.5C38.4946 67.5 39.4484 67.1049 40.1516 66.4017C40.8549 65.6984 41.25 64.7446 41.25 63.75C41.25 57.7826 43.6205 52.0597 47.8401 47.8401C52.0597 43.6205 57.7826 41.25 63.75 41.25C64.7446 41.25 65.6984 40.8549 66.4017 40.1516C67.1049 39.4484 67.5 38.4946 67.5 37.5C67.5 36.5054 67.1049 35.5516 66.4017 34.8484C65.6984 34.1451 64.7446 33.75 63.75 33.75C57.7826 33.75 52.0597 31.3795 47.8401 27.1599C43.6205 22.9403 41.25 17.2174 41.25 11.25C41.25 10.2554 40.8549 9.30161 40.1516 8.59835C39.4484 7.89509 38.4946 7.5 37.5 7.5C36.5054 7.5 35.5516 7.89509 34.8484 8.59835C34.1451 9.30161 33.75 10.2554 33.75 11.25C33.75 17.2174 31.3795 22.9403 27.1599 27.1599C22.9403 31.3795 17.2174 33.75 11.25 33.75C10.2554 33.75 9.30161 34.1451 8.59835 34.8484C7.89509 35.5516 7.5 36.5054 7.5 37.5C7.5 38.4946 7.89509 39.4484 8.59835 40.1516C9.30161 40.8549 10.2554 41.25 11.25 41.25C17.2174 41.25 22.9403 43.6205 27.1599 47.8401C31.3795 52.0597 33.75 57.7826 33.75 63.75C33.75 64.7446 34.1451 65.6984 34.8484 66.4017C35.5516 67.1049 36.5054 67.5 37.5 67.5Z" fill="#6FB581"/>
<path d="M82.5 82.5C77.5272 82.5 72.7581 80.5246 69.2417 77.0083C65.7254 73.4919 63.75 68.7228 63.75 63.75C63.75 62.7554 63.3549 61.8016 62.6517 61.0983C61.9484 60.3951 60.9946 60 60 60C59.0054 60 58.0516 60.3951 57.3484 61.0983C56.6451 61.8016 56.25 62.7554 56.25 63.75C56.25 68.7228 54.2746 73.4919 50.7583 77.0083C47.2419 80.5246 42.4728 82.5 37.5 82.5C36.5054 82.5 35.5516 82.8951 34.8484 83.5983C34.1451 84.3016 33.75 85.2554 33.75 86.25C33.75 87.2446 34.1451 88.1984 34.8484 88.9017C35.5516 89.6049 36.5054 90 37.5 90C42.4728 90 47.2419 91.9754 50.7583 95.4917C54.2746 99.0081 56.25 103.777 56.25 108.75C56.25 109.745 56.6451 110.698 57.3484 111.402C58.0516 112.105 59.0054 112.5 60 112.5C60.9946 112.5 61.9484 112.105 62.6517 111.402C63.3549 110.698 63.75 109.745 63.75 108.75C63.75 103.777 65.7254 99.0081 69.2417 95.4917C72.7581 91.9754 77.5272 90 82.5 90C83.4946 90 84.4484 89.6049 85.1517 88.9017C85.8549 88.1984 86.25 87.2446 86.25 86.25C86.25 85.2554 85.8549 84.3016 85.1517 83.5983C84.4484 82.8951 83.4946 82.5 82.5 82.5Z" fill="white"/>
<path d="M108.75 52.5C105.269 52.5 101.931 51.1172 99.4692 48.6558C97.0078 46.1944 95.625 42.856 95.625 39.375C95.625 38.3804 95.2299 37.4266 94.5267 36.7234C93.8234 36.0201 92.8696 35.625 91.875 35.625C90.8804 35.625 89.9266 36.0201 89.2233 36.7234C88.5201 37.4266 88.125 38.3804 88.125 39.375C88.125 42.856 86.7422 46.1944 84.2808 48.6558C81.8194 51.1172 78.481 52.5 75 52.5C74.0054 52.5 73.0516 52.8951 72.3483 53.5984C71.6451 54.3016 71.25 55.2554 71.25 56.25C71.25 57.2446 71.6451 58.1984 72.3483 58.9016C73.0516 59.6049 74.0054 60 75 60C78.481 60 81.8194 61.3828 84.2808 63.8442C86.7422 66.3056 88.125 69.644 88.125 73.125C88.125 74.1196 88.5201 75.0734 89.2233 75.7767C89.9266 76.4799 90.8804 76.875 91.875 76.875C92.8696 76.875 93.8234 76.4799 94.5267 75.7767C95.2299 75.0734 95.625 74.1196 95.625 73.125C95.625 69.644 97.0078 66.3056 99.4692 63.8442C101.931 61.3828 105.269 60 108.75 60C109.745 60 110.698 59.6049 111.402 58.9016C112.105 58.1984 112.5 57.2446 112.5 56.25C112.5 55.2554 112.105 54.3016 111.402 53.5984C110.698 52.8951 109.745 52.5 108.75 52.5Z" fill="#6FB581"/>
<path d="M37.5 67.5C38.4946 67.5 39.4484 67.1049 40.1516 66.4017C40.8549 65.6984 41.25 64.7446 41.25 63.75C41.25 57.7826 43.6205 52.0597 47.8401 47.8401C52.0597 43.6205 57.7826 41.25 63.75 41.25C64.7446 41.25 65.6984 40.8549 66.4017 40.1516C67.1049 39.4484 67.5 38.4946 67.5 37.5C67.5 36.5054 67.1049 35.5516 66.4017 34.8484C65.6984 34.1451 64.7446 33.75 63.75 33.75C57.7826 33.75 52.0597 31.3795 47.8401 27.1599C43.6205 22.9403 41.25 17.2174 41.25 11.25C41.25 10.2554 40.8549 9.30161 40.1516 8.59835C39.4484 7.89509 38.4946 7.5 37.5 7.5C36.5054 7.5 35.5516 7.89509 34.8484 8.59835C34.1451 9.30161 33.75 10.2554 33.75 11.25C33.75 17.2174 31.3795 22.9403 27.1599 27.1599C22.9403 31.3795 17.2174 33.75 11.25 33.75C10.2554 33.75 9.30161 34.1451 8.59835 34.8484C7.89509 35.5516 7.5 36.5054 7.5 37.5C7.5 38.4946 7.89509 39.4484 8.59835 40.1516C9.30161 40.8549 10.2554 41.25 11.25 41.25C17.2174 41.25 22.9403 43.6205 27.1599 47.8401C31.3795 52.0597 33.75 57.7826 33.75 63.75C33.75 64.7446 34.1451 65.6984 34.8484 66.4017C35.5516 67.1049 36.5054 67.5 37.5 67.5ZM25.7625 37.5C30.6865 34.75 34.75 30.6865 37.5 25.7625C40.25 30.6865 44.3135 34.75 49.2375 37.5C44.3135 40.25 40.25 44.3135 37.5 49.2375C34.75 44.3135 30.6865 40.25 25.7625 37.5Z" fill="#1D484E"/>
<path d="M82.5 82.5C77.5272 82.5 72.7581 80.5246 69.2417 77.0083C65.7254 73.4919 63.75 68.7228 63.75 63.75C63.75 62.7554 63.3549 61.8016 62.6517 61.0983C61.9484 60.3951 60.9946 60 60 60C59.0054 60 58.0516 60.3951 57.3484 61.0983C56.6451 61.8016 56.25 62.7554 56.25 63.75C56.25 68.7228 54.2746 73.4919 50.7583 77.0083C47.2419 80.5246 42.4728 82.5 37.5 82.5C36.5054 82.5 35.5516 82.8951 34.8484 83.5983C34.1451 84.3016 33.75 85.2554 33.75 86.25C33.75 87.2446 34.1451 88.1984 34.8484 88.9017C35.5516 89.6049 36.5054 90 37.5 90C42.4728 90 47.2419 91.9754 50.7583 95.4917C54.2746 99.0081 56.25 103.777 56.25 108.75C56.25 109.745 56.6451 110.698 57.3484 111.402C58.0516 112.105 59.0054 112.5 60 112.5C60.9946 112.5 61.9484 112.105 62.6517 111.402C63.3549 110.698 63.75 109.745 63.75 108.75C63.75 103.777 65.7254 99.0081 69.2417 95.4917C72.7581 91.9754 77.5272 90 82.5 90C83.4946 90 84.4484 89.6049 85.1517 88.9017C85.8549 88.1984 86.25 87.2446 86.25 86.25C86.25 85.2554 85.8549 84.3016 85.1517 83.5983C84.4484 82.8951 83.4946 82.5 82.5 82.5ZM60 95.25C57.7753 91.5637 54.6863 88.4747 51 86.25C54.6863 84.0253 57.7753 80.9363 60 77.25C62.2247 80.9363 65.3137 84.0253 69 86.25C65.3137 88.4747 62.2247 91.5637 60 95.25Z" fill="#1D484E"/>
<path d="M108.75 52.5C105.269 52.5 101.931 51.1172 99.4692 48.6558C97.0078 46.1944 95.625 42.856 95.625 39.375C95.625 38.3804 95.2299 37.4266 94.5267 36.7234C93.8234 36.0201 92.8696 35.625 91.875 35.625C90.8804 35.625 89.9266 36.0201 89.2233 36.7234C88.5201 37.4266 88.125 38.3804 88.125 39.375C88.125 42.856 86.7422 46.1944 84.2808 48.6558C81.8194 51.1172 78.481 52.5 75 52.5C74.0054 52.5 73.0516 52.8951 72.3483 53.5984C71.6451 54.3016 71.25 55.2554 71.25 56.25C71.25 57.2446 71.6451 58.1984 72.3483 58.9016C73.0516 59.6049 74.0054 60 75 60C78.481 60 81.8194 61.3828 84.2808 63.8442C86.7422 66.3056 88.125 69.644 88.125 73.125C88.125 74.1196 88.5201 75.0734 89.2233 75.7767C89.9266 76.4799 90.8804 76.875 91.875 76.875C92.8696 76.875 93.8234 76.4799 94.5267 75.7767C95.2299 75.0734 95.625 74.1196 95.625 73.125C95.625 69.644 97.0078 66.3056 99.4692 63.8442C101.931 61.3828 105.269 60 108.75 60C109.745 60 110.698 59.6049 111.402 58.9016C112.105 58.1984 112.5 57.2446 112.5 56.25C112.5 55.2554 112.105 54.3016 111.402 53.5984C110.698 52.8951 109.745 52.5 108.75 52.5ZM91.875 61.275C90.4932 59.3304 88.7946 57.6318 86.85 56.25C88.7946 54.8682 90.4932 53.1696 91.875 51.225C93.2568 53.1696 94.9554 54.8682 96.9 56.25C94.9554 57.6318 93.2568 59.3304 91.875 61.275Z" fill="#1D484E"/>
</svg>
