<svg width="80" height="50" viewBox="0 0 80 50" fill="none" xmlns="http://www.w3.org/2000/svg">
<g clip-path="url(#clip0_513_22)">
<path fill-rule="evenodd" clip-rule="evenodd" d="M42.5977 4.28212C44.0625 2.6198 45.9961 1.35582 48.1055 0.65105C50.3516 -0.0996775 52.8385 -0.237566 55.2148 0.428896C57.6367 1.11834 59.9284 2.64278 61.7188 5.20904C63.4766 7.72934 64.7331 11.2378 65.1042 15.9031C72.168 19.0975 76.4258 24.4675 78.4896 30.3278C79.4401 33.0319 79.9219 35.851 79.987 38.5934C80.0521 41.3436 79.707 44.0401 79.0039 46.4991C78.9063 46.8361 78.8086 47.1579 78.6979 47.4873H78.5156C78.5156 48.8662 77.5651 49.9846 76.3932 49.9846H2.1224C0.950521 49.9846 0 48.8662 0 47.4873C0 47.403 0.00651042 47.3264 0.0130208 47.2421C-0.0130208 46.3688 0 45.4726 0.0585938 44.5839C0.30599 40.5086 1.3737 36.5175 3.08594 33.2081C4.96745 29.5694 7.63672 26.735 10.8854 25.4251C10.8398 18.6149 12.7083 13.0764 15.6641 8.94736C17.4935 6.38876 19.7396 4.38171 22.207 2.96452C24.668 1.54733 27.3438 0.712334 30.0391 0.48252C34.401 0.130137 38.8542 1.34815 42.5977 4.28212ZM42.1094 25.5017C44.1797 25.5017 45.8659 27.4781 45.8659 29.9218C45.8659 32.3578 44.1862 34.3419 42.1094 34.3419C40.0391 34.3419 38.3529 32.3655 38.3529 29.9218C38.3529 27.4781 40.0326 25.5017 42.1094 25.5017ZM35.3255 14.7004C35.9766 14.7004 36.5104 15.3209 36.5104 16.0946C36.5104 16.8606 35.9831 17.4888 35.3255 17.4888C34.668 17.4888 34.1406 16.8683 34.1406 16.0946C34.1406 15.3209 34.6745 14.7004 35.3255 14.7004ZM61.3737 31.2624C63.444 31.2624 65.1302 33.2388 65.1302 35.6825C65.1302 38.1185 63.4505 40.1026 61.3737 40.1026C59.3034 40.1026 57.6172 38.1262 57.6172 35.6825C57.6172 33.2388 59.2969 31.2624 61.3737 31.2624ZM51.4388 12.5018C52.5 11.8813 53.7826 12.3869 54.3164 13.6279C54.8438 14.8766 54.4141 18.8294 53.3594 19.4575C52.2982 20.078 51.0156 17.1364 50.4818 15.8878C49.9544 14.6391 50.3841 13.1223 51.4388 12.5018ZM17.8906 40.7001C18.5417 40.7001 19.0755 41.3206 19.0755 42.0943C19.0755 42.8603 18.5482 43.4885 17.8906 43.4885C17.2396 43.4885 16.7057 42.868 16.7057 42.0943C16.7122 41.3206 17.2396 40.7001 17.8906 40.7001ZM19.2188 22.1157C20.1758 21.5489 21.3411 22.0085 21.8229 23.1346C22.3047 24.2607 21.9141 25.6319 20.957 26.1988C20 26.7657 18.8346 26.306 18.3529 25.1799C17.8711 24.0462 18.2617 22.675 19.2188 22.1157ZM29.6615 37.0001C30.7357 37.0001 31.6016 38.0189 31.6016 39.2829C31.6016 40.5469 30.7357 41.5657 29.6615 41.5657C28.5872 41.5657 27.7214 40.5469 27.7214 39.2829C27.7214 38.0189 28.5872 37.0001 29.6615 37.0001Z" fill="black"/>
</g>
<defs>
<clipPath id="clip0_513_22">
<rect width="80" height="50" fill="white"/>
</clipPath>
</defs>
</svg>
