<svg width="355" height="186" viewBox="0 0 355 186" fill="none" xmlns="http://www.w3.org/2000/svg">
<g filter="url(#filter0_f_128_184)">
<path d="M10 10V169.236C10 171.434 11.2011 173.472 13.1705 174.619C15.1388 175.761 17.5928 175.852 19.6466 174.848C64.5804 152.902 123.549 149.146 173.486 165.027L175.281 165.605C195.214 171.92 216.303 175.393 237.962 175.928C239.899 175.976 241.848 176 243.794 176C245.739 176 247.681 175.976 249.607 175.928C282.805 175.116 314.575 167.49 341.484 153.877C343.648 152.783 345 150.64 345 148.308V10H10Z" fill="black"/>
</g>
<path d="M10 10V169.236C10 171.434 11.2011 173.472 13.1705 174.619C15.1388 175.761 17.5928 175.852 19.6466 174.848C64.5804 152.902 123.549 149.146 173.486 165.027L175.281 165.605C195.214 171.92 216.303 175.393 237.962 175.928C239.899 175.976 241.848 176 243.794 176C245.739 176 247.681 175.976 249.607 175.928C282.805 175.116 314.575 167.49 341.484 153.877C343.648 152.783 345 150.64 345 148.308V10H10Z" fill="white"/>
<path fill-rule="evenodd" clip-rule="evenodd" d="M338.376 148.308C312.549 161.374 281.482 168.839 249.437 169.622C245.679 169.716 241.911 169.716 238.135 169.622C217.708 169.119 197.093 165.869 177.373 159.62C177.053 159.518 176.736 159.422 176.416 159.321C176.153 159.235 175.898 159.147 175.638 159.062C121.993 142.002 61.685 147.229 16.6245 169.236V10H338.376V148.308Z" fill="#FFED00"/>
<path fill-rule="evenodd" clip-rule="evenodd" d="M107.85 104.073C107.743 100.292 107.743 93.9543 106.869 90.3005C106.218 87.6165 104.804 84.5725 100.997 84.5725C96.9686 84.5725 93.2718 87.2485 93.2718 104.073H107.85ZM121.779 124.918C115.14 136.253 108.94 140.156 100.235 140.156C89.246 140.156 78.1448 131.131 78.1448 110.285C78.1448 92.2496 88.0469 80.7925 100.562 80.7925C119.494 80.7925 120.908 102 121.235 108.578H93.8135C94.1413 118.942 96.5315 131.374 106.869 131.374C113.294 131.374 117.099 126.013 119.166 123.207L121.779 124.918Z" fill="#00477A"/>
<path fill-rule="evenodd" clip-rule="evenodd" d="M152.532 86.8788H142.303V124.308C142.303 126.255 142.194 131.252 146.546 131.252C149.704 131.252 151.552 127.476 152.749 124.918L155.471 126.255C153.185 131.494 149.267 139.908 139.473 139.908C127.722 139.908 127.287 129.668 127.178 127.11V86.8788H121.521V83.5864C127.287 78.1058 132.185 73.4802 139.583 61.6577H142.303V82.2572H152.532V86.8788Z" fill="#00477A"/>
<path fill-rule="evenodd" clip-rule="evenodd" d="M301.458 87.2136C301.078 84.696 301.568 81.9019 299.527 80.089C298.374 79.4451 297.173 78.9267 295.924 78.4909C295.489 78.4049 294.88 78.3888 294.655 78.8388C294.765 80.2062 295.342 81.4122 295.659 82.6911C295.942 83.6885 296.18 84.7247 296.113 85.8362C296.232 88.1889 296.059 90.4557 295.322 92.5862C294.988 93.9848 294.434 95.4568 295.057 96.8292C295.722 97.9975 296.88 98.7622 298.308 98.7502C298.789 98.5128 299.491 98.2775 299.672 97.6607C300.208 96.9292 300.32 95.9379 300.722 95.121C300.687 94.8359 300.696 94.4222 300.961 94.2186C300.88 93.8073 301.11 93.4343 301.028 93.0653C301.657 91.9629 301.162 90.7588 301.579 89.5292C301.38 88.7831 301.566 88.0909 301.458 87.2136Z" fill="#00477A"/>
<path fill-rule="evenodd" clip-rule="evenodd" d="M309.327 106.257C309.026 106.502 309.143 106.911 308.876 107.158C307.962 109.495 306.275 111.193 304.982 113.309C302.394 116.561 299.575 118.98 296.309 121.558C293.658 124.1 291.342 127.278 292.69 131.053C292.854 131.557 293.186 132.138 292.918 132.587C290.77 131.642 289.683 129.758 288.463 128.133C285.69 124.074 280.577 124.1 276.5 122.29C271.638 120.875 266.94 117.611 264.526 113.066C262.813 110.027 262.088 105.556 263.457 102.246C263.647 101.463 263.964 100.894 264.288 100.146C264.737 99.3382 265.524 98.6529 266.101 97.9195C268.532 95.8618 271.586 94.6472 274.973 94.4607C275.055 94.3798 275.234 94.3456 275.329 94.1827C275.293 93.4347 274.342 93.501 273.875 93.0798C271.119 92.3262 268.476 92.3171 265.729 93.0481C264.727 93.4839 263.722 93.9168 262.761 94.3501C262.371 94.2189 261.945 94.1732 261.774 93.7971C262.057 90.7104 263.111 87.9238 265.025 85.367C265.217 84.8708 265.563 84.549 265.835 84.0609C266.417 83.4084 267.263 82.1888 268.384 82.2938C269.884 83.066 270.77 84.4013 272.4 84.8859C273.008 84.8995 273.735 85.4062 274.137 84.7134C273.943 83.8005 273.348 83.0907 272.884 82.4205L272.634 81.9238L271.914 79.4349C271.89 78.1931 272.103 76.5537 272.649 75.4875C272.952 75.2869 273.137 74.8359 273.571 74.8028C274.691 74.9114 275.411 75.7067 276.265 76.3009C276.424 77.0047 277.279 77.4315 277.44 78.179L277.48 78.264C278.357 79.8064 278.487 81.8675 278.191 83.717C278.314 83.9257 278.351 84.1353 278.605 84.3027C279.776 84.3289 280.491 83.4757 281.245 82.6221C282.267 81.4065 281.999 79.6299 281.944 78.1439C281.409 76.7292 280.225 75.5066 278.852 74.6982C278.854 74.5338 279.119 74.377 279.293 74.3363C281.981 74.3423 283.975 76.1184 286.796 76.0892C288.178 76.1546 289.522 76.1807 290.828 75.7982C291.139 75.5111 291.275 75.1843 291.368 74.8561C291.314 73.3313 289.495 73.4183 288.418 73.0297C287.344 72.5943 286.593 71.4225 285.381 71.3189C283.733 71.4954 281.74 71.6592 280.416 70.5653C278.565 70.1159 276.682 70.8232 274.947 71.1163C271.457 72.0413 268.137 73.5439 265.318 75.8394C264.748 76.0772 264.174 76.6885 263.528 76.3009C263.461 75.4342 264.176 74.3352 263.196 73.7782C262.813 73.5651 262.293 73.4318 262.168 73.0191C263.403 72.0106 265.113 73.1553 266.509 72.5269C266.69 72.2374 266.873 71.9518 266.619 71.6562C265.683 70.7322 264.126 70.7443 263.15 69.8605C263.111 69.5699 263.373 69.4518 263.591 69.3759C265.195 69.2844 267.098 69.6046 268.641 70.1752C269.247 70.2662 270.189 70.6965 270.64 70.0455C270.826 69.2235 269.802 68.7952 269.288 68.3312C268.301 67.8571 267.224 67.5847 266.238 67.1991C266.07 67.0282 265.978 66.9854 266.031 66.7426L266.552 66.5048C268.677 66.5878 270.535 66.7853 272.247 67.7702C272.846 67.8607 273.574 68.3312 274.148 67.8843C273.83 66.7642 272.489 66.3686 271.55 65.8588C270.817 65.6391 270.001 65.4597 269.535 64.867C269.535 64.9107 269.487 64.9484 269.45 64.9102C269.364 64.867 269.407 64.784 269.407 64.6623C271.497 64.0807 273.735 64.9896 275.621 65.7698C276.476 66.3243 277.417 66.7537 278.321 67.2675C279.859 68.0824 281.23 66.9915 282.617 66.6506C283.614 66.8311 284.782 66.8969 285.409 67.8114C286.904 68.7495 289.443 67.6832 290.845 69.0315C292.428 69.9314 292.899 72.1223 294.793 72.6999C296.69 73.183 298.31 74.4167 299.441 76.0455C300.333 77.2576 300.774 78.625 301.355 80.0019L302.07 80.7947C304.726 82.415 307.052 84.9336 308.512 87.5191C310.194 90.1107 310.782 93.0069 311.194 96.0674C311.244 99.6951 310.568 103.024 309.327 106.257ZM284.314 56.5911C260.182 56.5911 240.612 75.2235 240.612 98.202C240.612 121.182 260.182 139.811 284.314 139.811C308.45 139.811 328.011 121.182 328.011 98.202C328.011 75.2235 308.45 56.5911 284.314 56.5911Z" fill="#00477A"/>
<path fill-rule="evenodd" clip-rule="evenodd" d="M300.962 94.2188C300.697 94.4224 300.688 94.8367 300.723 95.1212C300.321 95.9387 300.209 96.93 299.673 97.6615C299.492 98.2778 298.79 98.5131 298.31 98.751C296.881 98.7625 295.723 97.9983 295.058 96.8295C294.435 95.4576 294.989 93.9851 295.322 92.5865C296.061 90.4565 296.233 88.1892 296.114 85.837C296.181 84.7249 295.943 83.6893 295.66 82.6919C295.343 81.413 294.766 80.2065 294.656 78.8396C294.881 78.3896 295.49 78.4057 295.924 78.4917C297.174 78.9275 298.375 79.4453 299.528 80.0898C301.568 81.9021 301.079 84.6963 301.459 87.2139C301.567 88.0917 301.38 88.7834 301.58 89.53C301.163 90.7591 301.658 91.9636 301.029 93.0656C301.111 93.4346 300.882 93.8081 300.962 94.2188ZM308.508 87.5191C307.047 84.9341 304.721 82.4154 302.066 80.7946L301.351 80.0024C300.77 78.6249 300.329 77.258 299.436 76.0454C298.306 74.4166 296.686 73.1834 294.789 72.6998C292.895 72.1222 292.423 69.9313 290.841 69.0315C289.438 67.6831 286.9 68.7494 285.405 67.8113C284.777 66.8969 283.61 66.831 282.613 66.6511C281.226 66.9914 279.855 68.0828 278.317 67.2674C277.412 66.7536 276.471 66.3248 275.617 65.7703C273.73 64.9896 271.492 64.0811 269.403 64.6623C269.403 64.7844 269.36 64.8669 269.445 64.9101C269.483 64.9483 269.531 64.9111 269.531 64.8669C269.997 65.4596 270.812 65.6391 271.546 65.8588C272.484 66.3685 273.826 66.7647 274.144 67.8847C273.57 68.3312 272.842 67.8606 272.242 67.7701C270.531 66.7858 268.673 66.5882 266.547 66.5053L266.026 66.7426C265.974 66.9859 266.065 67.0281 266.233 67.199C267.22 67.5851 268.297 67.8571 269.283 68.3312C269.798 68.7957 270.822 69.2235 270.635 70.0459C270.185 70.6965 269.243 70.2661 268.637 70.1751C267.094 69.6045 265.19 69.2843 263.587 69.3758C263.369 69.4517 263.107 69.5699 263.146 69.8604C264.121 70.7442 265.678 70.7322 266.615 71.6567C266.868 71.9518 266.686 72.2373 266.505 72.5274C265.109 73.1558 263.399 72.0111 262.164 73.019C262.289 73.4318 262.808 73.5655 263.192 73.7782C264.172 74.3352 263.457 75.4341 263.524 76.3008C264.169 76.6884 264.743 76.0776 265.313 75.8393C268.132 73.5439 271.453 72.0417 274.943 71.1167C276.678 70.8231 278.561 70.1158 280.412 70.5658C281.736 71.6592 283.729 71.4953 285.377 71.3193C286.589 71.4224 287.34 72.5942 288.414 73.0301C289.49 73.4187 291.31 73.3317 291.364 74.856C291.271 75.1848 291.135 75.5115 290.824 75.7981C289.518 76.1807 288.174 76.1545 286.792 76.0892C283.971 76.1188 281.976 74.3422 279.289 74.3362C279.114 74.3769 278.85 74.5337 278.848 74.6981C280.22 75.507 281.405 76.7296 281.939 78.1438C281.995 79.6299 282.263 81.407 281.24 82.6221C280.486 83.4757 279.772 84.3288 278.6 84.3026C278.347 84.1352 278.31 83.9256 278.187 83.717C278.483 81.8675 278.352 79.8063 277.475 78.2639L277.436 78.179C277.274 77.4314 276.42 77.0046 276.261 76.3008C275.407 75.7066 274.687 74.9118 273.566 74.8027C273.133 74.8359 272.948 75.2868 272.645 75.4879C272.099 76.5537 271.885 78.1936 271.909 79.4348L272.63 81.9238L272.879 82.4205C273.343 83.0906 273.939 83.8004 274.133 84.7134C273.73 85.4066 273.004 84.8994 272.396 84.8863C270.766 84.4017 269.879 83.0659 268.38 82.2943C267.259 82.1892 266.412 83.4083 265.831 84.0608C265.559 84.549 265.213 84.8707 265.021 85.3669C263.107 87.9243 262.053 90.7103 261.77 93.7971C261.941 94.1731 262.367 94.2188 262.757 94.3505C263.717 93.9167 264.723 93.4839 265.725 93.048C268.471 92.3176 271.114 92.3261 273.87 93.0797C274.338 93.501 275.289 93.4346 275.324 94.1831C275.23 94.3455 275.051 94.3797 274.969 94.4607C271.582 94.6477 268.527 95.8622 266.097 97.9194C265.52 98.6529 264.732 99.3386 264.283 100.146C263.959 100.894 263.642 101.463 263.453 102.246C262.084 105.557 262.808 110.027 264.522 113.066C266.935 117.611 271.633 120.875 276.495 122.29C280.572 124.1 285.685 124.074 288.458 128.133C289.678 129.759 290.766 131.641 292.913 132.587C293.182 132.138 292.85 131.557 292.686 131.053C291.337 127.278 293.654 124.1 296.305 121.558C299.571 118.98 302.39 116.561 304.978 113.309C306.271 111.194 307.958 109.495 308.872 107.158C309.139 106.911 309.021 106.503 309.323 106.257C310.564 103.024 311.239 99.6955 311.189 96.0679C310.777 93.0068 310.189 90.1106 308.508 87.5191Z" fill="white"/>
<path fill-rule="evenodd" clip-rule="evenodd" d="M215.053 126.255C213.531 128.207 211.023 131.494 207.329 131.494C203.412 131.494 201.779 127.109 201.779 123.333C201.779 112.727 212.547 109.188 215.053 108.578V126.255ZM237.776 126.396C236.685 128.725 235.158 132.322 232.349 132.5C230.103 132.407 230.066 130.301 230.066 129.59V97.7745C230.066 86.3195 220.385 81.0771 208.304 81.0771C203.187 81.0771 198.967 81.8633 195.717 83.2539C194.341 81.8261 192.317 80.7925 189.386 80.7925C182.319 80.7925 177.419 88.1071 175.135 91.8851H174.916V82.257H154.353V85.1818C157.615 85.6679 160.226 86.2803 160.226 92.3717V128.207C160.226 134.301 157.835 134.79 154.353 135.519V138.445H183.295V135.519C176.66 135.154 175.354 133.322 175.354 125.888V102.855C175.354 93.9543 180.596 91.8585 182.222 91.9882C189.287 92.5507 186.008 98.1908 190.926 101.071C191.26 101.268 191.585 101.401 191.896 101.484C193.502 102.168 195.114 101.991 195.712 101.911C200.125 101.311 203.274 97.1119 202.14 93.2726C201.075 89.653 202.392 85.3537 206.898 84.7279C214.865 83.6224 215.159 89.4856 215.159 95.7078V104.604C199.708 109.841 185.894 114.719 185.894 127.395C185.894 136.661 192.636 140.435 197.86 140.435C200.47 140.435 208.087 139.824 215.159 131.902C215.811 135.319 216.684 140.435 224.301 140.435C224.647 140.435 224.985 140.424 225.312 140.404H225.369C234.52 140.404 238.184 132.54 240.321 127.645L237.776 126.396Z" fill="#00477A"/>
<path fill-rule="evenodd" clip-rule="evenodd" d="M81.2264 138.445H41.1083V135.3C49.3114 134.546 52.0099 134.289 52.0099 123.714V61.7091C44.1441 62.2134 32.5799 60.7122 30.3218 78.0009H27.0615L27.3994 57.6848H94.8249L95.0482 78.0009H91.7927C89.778 60.8545 77.9667 62.2134 70.2139 61.7091V123.714C70.2139 134.422 72.9108 134.67 81.2264 135.3V138.445Z" fill="#00477A"/>
<defs>
<filter id="filter0_f_128_184" x="0" y="0" width="355" height="186" filterUnits="userSpaceOnUse" color-interpolation-filters="sRGB">
<feFlood flood-opacity="0" result="BackgroundImageFix"/>
<feBlend mode="normal" in="SourceGraphic" in2="BackgroundImageFix" result="shape"/>
<feGaussianBlur stdDeviation="5" result="effect1_foregroundBlur_128_184"/>
</filter>
</defs>
</svg>
