<svg width="40" height="40" viewBox="0 0 40 40" fill="none" xmlns="http://www.w3.org/2000/svg">
<path d="M38.3333 6.66667H28.3333V3.33333C28.3333 1.495 26.8383 0 25 0H15C13.1616 0 11.6666 1.495 11.6666 3.33333V6.66667H1.66663V10H4.40663L7.24496 35.5517C7.52663 38.0867 9.66329 40 12.215 40H27.7216C30.2733 40 32.41 38.0883 32.69 35.5517L35.5283 10H38.3316L38.3333 6.66667ZM15 3.33333H25V6.66667H15V3.33333ZM29.3766 35.1833C29.2833 36.0283 28.5716 36.6667 27.72 36.6667H12.215C11.365 36.6667 10.6516 36.0283 10.5583 35.1833L7.75996 10H32.1766L29.3783 35.1833H29.3766ZM13.405 27.5717L17.6433 23.3333L13.405 19.095L15.7616 16.7383L20 20.9767L24.2383 16.7383L26.595 19.095L22.3566 23.3333L26.595 27.5717L24.2383 29.9283L20 25.69L15.7616 29.9283L13.405 27.5717Z" fill="#1D484E"/>
</svg>
