<svg width="70" height="70" viewBox="0 0 70 70" fill="none" xmlns="http://www.w3.org/2000/svg">
<path fill-rule="evenodd" clip-rule="evenodd" d="M35.0148 70C53.5124 70 68.6654 55.725 70 37.6036H0C1.33523 55.725 16.4885 70 35.0148 70ZM70 32.4111C68.6654 14.2896 53.5123 0 35.0148 0C16.4885 0 1.33523 14.2895 0.000146182 32.411H70V32.4111Z" fill="#8AC9AF"/>
<path fill-rule="evenodd" clip-rule="evenodd" d="M35.0148 60.537C49.1117 60.537 60.6121 49.0556 60.6121 35.0001C60.6121 20.959 49.1117 9.46301 35.0148 9.46301C20.9037 9.46301 9.41797 20.959 9.41797 35.0001C9.41782 49.0558 20.9037 60.537 35.0148 60.537Z" fill="#EB7149"/>
<path fill-rule="evenodd" clip-rule="evenodd" d="M1.18856 32.4111H68.8412C68.8997 33.2596 68.9145 34.1368 68.9145 35C68.9145 35.8779 68.8997 36.7548 68.8412 37.6037H1.18856C1.12947 36.755 1.08545 35.8779 1.08545 35C1.08545 34.1368 1.12947 33.2596 1.18856 32.4111Z" fill="#EB7149"/>
<path fill-rule="evenodd" clip-rule="evenodd" d="M35.0147 57.8457C47.63 57.8457 57.8984 47.5781 57.8984 34.9999C57.8984 22.4069 47.63 12.1686 35.0147 12.1686C22.3995 12.1686 12.1023 22.4069 12.1023 34.9999C12.1023 47.5781 22.3995 57.8457 35.0147 57.8457Z" fill="#8AC9AF"/>
<path fill-rule="evenodd" clip-rule="evenodd" d="M47.4538 28.7548C47.1162 28.5059 45.9135 28.5059 44.7108 28.5059C43.4935 28.5204 42.276 28.5204 41.9824 28.6372C41.7186 28.7401 41.1315 30.1584 40.3689 31.6066C39.5037 33.2447 38.4474 34.839 37.7723 34.8097C36.8779 34.8097 37.0977 32.1185 37.1562 30.1146C37.171 28.813 36.9512 28.3887 36.7754 28.2718C36.3059 27.9498 35.0439 27.6429 35.0439 27.6429C35.0439 27.6429 31.2153 27.3503 30.6873 29.003C31.4211 29.0906 32.6677 28.8715 32.1836 33.9612C32.1396 34.2102 31.5968 36.2866 29.822 33.4785C29.3819 32.762 27.6803 28.5203 27.079 28.5057C25.1277 28.4618 23.177 28.3742 22.502 28.7546C21.8712 29.12 23.353 32.0308 25.8617 35.936C27.8857 39.1392 30.0566 41.6253 33.7973 42.2541C34.5013 42.327 36.3205 42.4005 36.9073 42.1226C37.2887 41.9325 36.8048 39.1828 38.1394 38.9049C38.7261 38.7878 41.0143 41.786 41.8654 42.1226C42.3934 42.3416 43.5376 42.4298 44.7111 42.3715C45.9871 42.3416 47.4249 42.5031 47.5714 41.6253C47.8796 39.724 43.7136 37.2374 43.6109 36.0674C43.5084 35.2189 45.122 33.6691 45.9432 32.4839C46.9698 31.0364 48.0993 29.296 47.4538 28.7548Z" fill="#EB7149"/>
</svg>
