<svg width="40" height="24" viewBox="0 0 40 24" fill="none" xmlns="http://www.w3.org/2000/svg">
<path fill-rule="evenodd" clip-rule="evenodd" d="M34.1866 15.2603C35.5043 16.6338 36.895 17.926 38.0768 19.438C38.5988 20.1099 39.0931 20.8033 39.4711 21.583C40.0069 22.6915 39.5216 23.9112 38.5907 23.9774L32.8039 23.9746C31.3114 24.1069 30.1207 23.4654 29.1196 22.3759C28.3184 21.5046 27.5764 20.5772 26.806 19.6766C26.4902 19.3084 26.1596 18.962 25.7647 18.6882C24.9747 18.1407 24.289 18.3084 23.8375 19.188C23.3777 20.0827 23.2735 21.0734 23.2283 22.0706C23.1663 23.5254 22.7544 23.9079 21.3856 23.9745C18.4604 24.1218 15.6841 23.6493 13.1051 22.0738C10.8314 20.6848 9.06816 18.724 7.53348 16.5042C4.54544 12.1817 2.2572 7.432 0.200611 2.54923C-0.262311 1.44914 0.076234 0.858616 1.21311 0.837715C3.10095 0.798561 4.98853 0.801348 6.87858 0.834929C7.64585 0.846912 8.1538 1.31677 8.45006 2.09066C9.47144 4.77199 10.7212 7.32304 12.2899 9.68765C12.7077 10.3172 13.1337 10.9467 13.7403 11.3898C14.4114 11.8804 14.9223 11.7178 15.2381 10.9197C15.4384 10.4136 15.5261 9.86851 15.5712 9.32648C15.7208 7.46168 15.7405 5.6001 15.4782 3.74185C15.3171 2.58212 14.7053 1.83135 13.6214 1.61189C13.0683 1.5 13.1507 1.28026 13.4185 0.943197C13.8836 0.361868 14.3211 0 15.1932 0H21.7332C22.7628 0.216953 22.9914 0.710776 23.1324 1.81686L23.138 9.57297C23.1268 10.0012 23.3383 11.2718 24.0607 11.5552C24.6389 11.757 25.02 11.2632 25.3669 10.8718C26.9327 9.0974 28.0503 7.00047 29.0487 4.82912C29.4918 3.87436 29.8727 2.88282 30.2419 1.89211C30.5155 1.15694 30.9447 0.795216 31.7204 0.81124L38.0148 0.817232C38.2014 0.817232 38.3903 0.820158 38.571 0.853182C39.6317 1.04617 39.9223 1.5333 39.5947 2.63911C39.0786 4.37404 38.0743 5.81984 37.0923 7.27232C36.0426 8.82304 34.92 10.3207 33.879 11.8806C32.9226 13.3051 32.9986 14.0231 34.1866 15.2603Z" fill="#1D484E"/>
</svg>
