<svg width="120" height="120" viewBox="0 0 120 120" fill="none" xmlns="http://www.w3.org/2000/svg">
<path d="M45.2532 23.0513C51.3287 23.0513 56.2538 18.1262 56.2538 12.0507C56.2538 5.9752 51.3287 1.05005 45.2532 1.05005C39.1777 1.05005 34.2526 5.9752 34.2526 12.0507C34.2526 18.1262 39.1777 23.0513 45.2532 23.0513Z" fill="#1D484E"/>
<path d="M105.371 45.7258C97.2937 40.0483 89.6831 37.1289 80.4769 37.4327C66.6881 37.7702 59.4919 45.7052 56.4619 48.4633C53.4375 51.2214 50.3437 52.9727 44.6212 54.7183C32.3062 58.1383 22.7437 51.662 19.1531 48.677C19.1456 48.6714 19.1381 48.6714 19.1306 48.6639C17.7937 47.6552 17.055 47.3533 16.6556 47.2689H14.3737C12.66 47.2689 12.3506 49.2808 12.3075 50.357C12.3075 60.1802 12.3075 90.4052 12.3075 94.0614C12.8119 98.4358 13.5525 100.858 17.5275 104.02C21.5025 107.183 26.4656 106.718 26.4656 106.718C26.4656 106.718 91.3706 106.708 94.9219 106.705C98.3981 106.435 101.728 105.43 104.745 101.816C107.76 98.2014 107.683 94.0614 107.683 94.0614C107.683 94.0614 107.689 64.4251 107.696 50.5426C107.689 47.9251 106.001 46.2583 105.371 45.7258ZM34.2525 85.8789C28.9762 85.8789 24.7012 81.6039 24.7012 76.3277C24.7012 71.0514 28.9762 66.7764 34.2525 66.7764C39.5269 66.7764 43.8037 71.0514 43.8037 76.3277C43.8037 81.6039 39.5269 85.8789 34.2525 85.8789ZM85.4719 95.582C78.855 95.582 73.4944 90.2233 73.4944 83.6083C73.4944 76.9933 78.8531 71.6326 85.4719 71.6326C92.0831 71.6326 97.4437 76.9914 97.4437 83.6083C97.4437 90.2214 92.0831 95.582 85.4719 95.582Z" fill="#1D484E"/>
<path d="M119.899 28.6163C119.886 26.0794 118.2 25.8356 117.649 25.8225H115.59C113.151 25.8225 113.261 28.4925 113.261 28.4925C113.269 41.8163 113.301 101.282 113.256 102.433C113.203 103.731 112.944 107.053 109.778 109.909C106.352 112.659 102.926 112.296 102.926 112.296C102.926 112.296 17.4863 112.296 15.4632 112.191C13.8544 111.93 11.0513 111.36 8.66441 108.193C6.27753 105.026 6.74441 100.875 6.74441 100.875V28.7513C6.74441 26.325 5.25941 25.8825 4.45316 25.8225H2.53878C0.534409 25.8225 0.153784 27.3881 0.0975342 28.2881C0.0975342 40.8 0.0975342 97.62 0.0975342 102.33C0.0975342 107.623 2.01753 111.829 6.65066 115.547C11.2838 119.265 16.7082 118.941 16.7082 118.941C16.7082 118.941 100.226 118.941 103.862 118.931C107.496 118.922 112.269 117.279 116.209 112.77C120.148 108.263 119.901 102.332 119.901 102.332L119.899 28.6163Z" fill="#1D484E"/>
</svg>
