<svg width="192" height="190" viewBox="0 0 192 190" fill="none" xmlns="http://www.w3.org/2000/svg">
<path d="M56.1682 85.5627C56.3767 85.9889 53.2964 81.7875 54.8814 69.1729C56.904 53.0611 46.4716 51.9807 46.4716 51.9807C44.5562 51.7129 42.5894 51.7883 40.6981 52.2022C38.8068 52.6161 37.0328 53.3592 35.4905 54.3836L52.2274 86.4893L56.1682 85.5627Z" fill="#CCEADF"/>
<path d="M26.7748 94.9448C26.7748 94.9448 23.7089 89.6623 14.4617 79.8224C10.3275 75.4232 8.62976 71.8513 8.16907 69.0659C7.88738 67.1402 8.35937 65.1797 9.51309 63.4832C10.6668 61.7867 12.439 60.4473 14.5594 59.6691C17.197 58.6368 20.0286 58.0194 22.9137 57.8475L32.7528 91.9233L26.7748 94.9448Z" fill="#CCEADF"/>
<path d="M110.794 172.417C110.794 172.417 103.515 168.765 88.0967 175.966C72.6789 183.167 59.3911 180.849 59.3911 180.849C59.3911 180.849 53.27 180.043 49.978 176.795C49.978 176.795 48.7337 173.238 52.6922 169.964C52.6922 169.964 45.7897 155.881 63.8294 146.689L110.794 172.417Z" fill="#CCEADF"/>
<path d="M133.613 128.293C133.613 128.293 126.484 126.036 123.983 112.951C121.483 99.8654 112.137 93.3293 112.137 93.3293C112.137 93.3293 108.052 90.1725 103.484 90.0391C103.484 90.0391 99.7929 91.2847 99.2309 95.4368C99.2309 95.4368 83.5117 99.201 85.7918 114.941L133.613 128.293Z" fill="#CCEADF"/>
<path d="M26.6677 53.698L35.7431 45.9702C35.7431 45.9702 46.6622 16.0898 18.7086 2.4641C18.7086 2.4641 5.48472 11.4449 17.1503 26.8246C14.8528 27.0428 12.6985 27.9121 11.0389 29.2906C9.43922 30.6062 8.48496 32.3814 8.37126 34.2529C8.25756 36.1245 8.99302 37.951 10.4272 39.3589C16.0314 44.9374 19.2802 51.9495 19.6722 59.313L26.6677 53.698Z" fill="#CCEADF"/>
<path d="M127.259 122.917L115.046 176.456C115.046 176.456 46.8674 168.409 27.472 100.271C27.472 100.271 25.2646 85.3727 24.4006 79.2721L20.4866 65.0447C20.182 63.1066 19.9061 61.1667 19.6731 59.3167C19.503 57.955 19.6692 56.5739 20.1613 55.2606C20.6533 53.9474 21.4605 52.7305 22.5319 51.6869C25.9157 48.4123 30.6552 46.3627 35.7439 45.9733C35.7439 45.9733 45.3564 106.076 127.259 122.917Z" fill="white"/>
<path d="M127.258 122.917C125.44 122.543 123.669 122.141 121.921 121.725C120.401 122.846 118.955 124.037 117.59 125.292L116.908 125.919L116.901 125.94C110.802 131.762 101.83 143.281 103.933 159.304L103.926 159.324L104.054 160.187C104.941 165.486 106.763 170.63 109.461 175.448C111.301 175.863 113.166 176.199 115.048 176.456L127.258 122.917Z" fill="#CCEADF"/>
<path d="M68.6268 145.803C71.141 147.016 73.2905 148.698 74.9157 150.722C77.4239 153.825 80.5884 156.506 84.2533 158.632C96.6288 165.815 112.348 158.023 112.348 158.023L121.645 147.535L127.26 122.919C117.773 121 108.557 118.265 99.7561 114.754L91.6037 123.515C80.6686 122.94 73.2443 124.696 68.3116 126.924C66.4071 127.771 64.7864 129.016 63.607 130.54C62.4275 132.063 61.7294 133.813 61.5805 135.618C61.4316 137.424 61.837 139.224 62.7573 140.844C63.6776 142.464 65.0814 143.848 66.8324 144.863C67.4482 145.218 68.0538 145.531 68.6268 145.803Z" fill="#EB7149"/>
<path d="M121.919 121.726C120.399 122.846 118.953 124.037 117.588 125.293L116.906 125.919L116.899 125.94C110.8 131.763 101.828 143.281 103.931 159.305L103.924 159.325L104.051 160.188C104.08 160.376 104.125 160.572 104.158 160.764C107.006 160.138 109.757 159.217 112.348 158.023L121.645 147.536L127.26 122.919C125.44 122.543 123.669 122.141 121.919 121.726Z" fill="#F04912"/>
<path d="M82.7901 106.473C64.6021 114.387 82.0446 132.811 82.0446 132.811C82.0446 132.811 93.0534 136.047 100.832 134.173C108.611 132.299 105.712 125.466 105.712 125.466C104.569 122.966 103.887 119.207 103.494 116.188C96.2342 113.516 89.3017 110.264 82.7901 106.473Z" fill="#1D484E"/>
<path d="M177.825 165.444C179.1 165.166 180.285 164.639 181.283 163.906C182.281 163.173 183.065 162.254 183.57 161.223C186.015 156.136 186.187 150.496 184.053 145.369C183.627 144.284 182.894 143.306 181.918 142.52C180.941 141.734 179.749 141.164 178.446 140.859L177.971 140.747C176.637 140.454 175.46 139.799 174.62 138.88C173.129 137.185 169.209 135.099 162.613 133.449L162.224 129.51C161.788 127.927 160.835 126.486 159.472 125.351C158.109 124.215 156.392 123.43 154.514 123.084C154.162 123.024 153.657 122.947 153.09 122.866C152.127 122.737 151.137 122.831 150.224 123.138C149.311 123.444 148.509 123.953 147.903 124.609L146.245 126.396C146.245 126.396 140.247 123.105 127.257 122.919C124.935 124.371 122.791 126.018 120.859 127.835L108.488 159.64C109.497 165.541 111.715 171.232 115.045 176.459C122.031 176.874 129.044 176.98 136.056 176.775L136.64 179.065C136.75 179.547 136.973 180.004 137.296 180.41C137.849 181.082 138.589 181.626 139.453 181.997C140.316 182.368 141.277 182.554 142.252 182.539C145.745 182.453 149.212 181.935 152.543 181.001C153.558 180.724 154.475 180.229 155.202 179.564C155.929 178.9 156.441 178.088 156.687 177.211L157.541 174.371C157.541 174.371 168.028 172.979 174.783 166.985C175.609 166.241 176.664 165.707 177.825 165.444Z" fill="white"/>
<path d="M86.6395 140.749C86.8005 140.795 86.9747 140.8 87.1403 140.762C87.3058 140.725 87.4555 140.647 87.5704 140.539C87.6853 140.431 87.7603 140.297 87.7862 140.153C87.812 140.01 87.7874 139.865 87.7155 139.735C85.4361 135.377 83.8675 130.77 83.0522 126.039C82.3375 123.724 80.9477 121.606 79.009 119.876C77.0703 118.147 74.6441 116.862 71.9506 116.137C71.9506 116.137 61.1565 112.651 54.1505 106.587C54.0156 106.469 53.835 106.396 53.6406 106.381C53.4462 106.365 53.2506 106.408 53.0883 106.503C52.926 106.597 52.8076 106.737 52.7539 106.896C52.7003 107.056 52.7149 107.226 52.7952 107.376C57.73 116.626 69.7159 135.759 86.6395 140.749Z" fill="#CCEADF"/>
<path d="M92.2194 170.224C93.1918 169.536 94.0611 168.749 94.8072 167.883C100.222 161.533 94.2187 152.927 85.0512 153.57C82.1642 153.807 79.3358 154.445 76.6796 155.457C73.8061 156.488 70.7458 157.079 67.6431 157.202C75.1243 162.425 83.3843 166.802 92.2194 170.224Z" fill="#1D484E"/>
<path d="M41.0353 93.4918C47.2916 86.3465 49.9079 81.4736 50.9192 78.3038C49.0566 75.7908 47.4176 73.3237 45.9705 70.9398C42.7261 69.7748 39.3027 68.9909 35.7943 68.6098C33.171 68.3131 30.633 67.6418 28.2881 66.6243C25.8684 65.6085 23.2017 65.0685 20.4845 65.0439C21.906 74.0995 23.8666 83.1254 23.8666 83.1254C25.8983 97.4635 29.8962 109.624 35.1263 119.936C33.5598 112.598 33.3922 102.221 41.0353 93.4918Z" fill="#EB7149"/>
<path d="M40.6811 129.534C44.8078 127.328 49.5037 123.363 47.8627 117.136C47.8627 117.136 44.8165 100.589 27.484 100.267C30.3137 110.497 34.752 120.339 40.6811 129.534Z" fill="#1D484E"/>
<path d="M38.1098 76.3489C39.8317 76.6061 41.6096 76.4873 43.2758 76.0036C44.942 75.5198 46.4417 74.6872 47.6337 73.584C44.7975 69.2424 42.3514 64.723 40.3156 60.0632C37.6036 60.7324 35.2898 62.2643 33.8641 64.3344C32.4385 66.4045 32.0131 68.8503 32.678 71.1537C33.3603 73.5356 34.8652 75.8446 38.1098 76.3489Z" fill="#1D484E"/>
<path d="M108.496 159.637L117.172 159.169C119.302 159.055 121.309 158.246 122.771 156.914L122.912 156.785C123.864 155.928 125.129 155.366 126.496 155.193C127.864 155.02 129.254 155.246 130.435 155.833C134.09 157.608 139.801 159.19 145.171 155.75C154.021 150.083 140.158 138.391 140.158 138.391C140.158 138.391 131.407 128.586 120.861 127.833C114.541 133.639 106.141 144.466 108.496 159.637Z" fill="#EB7149"/>
<path d="M152.233 176.751C151.982 175.508 149.363 174.879 146.381 175.347C143.4 175.815 141.186 177.201 141.437 178.444C141.688 179.687 144.307 180.315 147.289 179.848C150.27 179.38 152.484 177.993 152.233 176.751Z" fill="#1D484E"/>
<path d="M162.613 133.449L162.224 129.51C161.788 127.927 160.835 126.486 159.472 125.351C158.109 124.215 156.392 123.43 154.514 123.084C154.162 123.024 153.657 122.947 153.09 122.866C152.127 122.737 151.137 122.831 150.224 123.138C149.311 123.444 148.509 123.953 147.903 124.609L146.245 126.396C154.796 129.103 158.065 130.653 162.613 133.449Z" fill="#CCEADF"/>
<path d="M178.446 140.859L177.971 140.747C176.682 140.462 175.539 139.838 174.703 138.966C175.554 139.865 182.82 148.181 177.825 165.444C179.1 165.166 180.285 164.639 181.283 163.906C182.281 163.173 183.065 162.254 183.57 161.223C186.015 156.136 186.187 150.496 184.053 145.369C183.627 144.284 182.894 143.306 181.918 142.52C180.941 141.735 179.75 141.164 178.446 140.859Z" fill="#CCEADF"/>
</svg>
