<svg width="40" height="36" viewBox="0 0 40 36" fill="none" xmlns="http://www.w3.org/2000/svg">
<g clip-path="url(#clip0_552_218)">
<path d="M38.174 7.50714C36.7401 5.96239 34.0928 5.33228 29.0371 5.33228H10.6848C5.51332 5.33228 2.82117 6.00304 1.39271 7.64766C0 9.25117 0 11.6138 0 14.8838V21.1163C0 27.4513 1.65244 30.6677 10.6848 30.6677H29.0372C33.4215 30.6677 35.851 30.1117 37.4227 28.7484C39.0345 27.3505 39.7222 25.0679 39.7222 21.1163V14.8838C39.7222 11.4353 39.6145 9.05874 38.174 7.50714ZM25.5018 18.8605L17.1681 22.8078C16.9818 22.8961 16.778 22.9399 16.5745 22.9399C16.3442 22.9399 16.1143 22.8837 15.9107 22.7719C15.5273 22.5614 15.2932 22.1848 15.2932 21.7786V13.9092C15.2932 13.5037 15.5266 13.1274 15.9093 12.9168C16.292 12.7061 16.768 12.6917 17.1651 12.8787L25.4988 16.8006C25.9229 17.0001 26.1891 17.3968 26.1898 17.8296C26.1903 18.2628 25.9252 18.6601 25.5018 18.8605Z" fill="#1D484E"/>
</g>
<defs>
<clipPath id="clip0_552_218">
<rect width="39.7222" height="36" fill="white"/>
</clipPath>
</defs>
</svg>
